<svg xmlns="http://www.w3.org/2000/svg" xmlns:xlink="http://www.w3.org/1999/xlink" viewBox="0 0 377.35 302.34"><defs><style>.a,.b,.c,.d,.e,.f,.g,.h,.i,.j{stroke:#212121;stroke-width:2px;}.a,.b,.c,.d,.e{stroke-linejoin:round;}.a{fill:url(#a);}.b{fill:url(#b);}.c{fill:url(#c);}.d{fill:url(#d);}.e{fill:url(#e);}.f,.g,.h,.i,.j{stroke-miterlimit:10;}.f{fill:url(#f);}.g{fill:url(#g);}.h{fill:url(#h);}.i{fill:url(#i);}.j{fill:url(#j);}</style><radialGradient id="a" cx="188.61" cy="213.83" r="374.99" gradientTransform="translate(0 128.3) scale(1 0.4)" gradientUnits="userSpaceOnUse"><stop offset="0.1" stop-color="#c93"/><stop offset="0.3" stop-color="#cc4d33"/><stop offset="0.44" stop-color="#a83e2d"/><stop offset="0.58" stop-color="#8b3228"/><stop offset="0.72" stop-color="#772925"/><stop offset="0.86" stop-color="#6a2423"/><stop offset="1" stop-color="#622"/></radialGradient><linearGradient id="b" x1="97.92" y1="79.1" x2="97.92" y2="12.38" gradientUnits="userSpaceOnUse"><stop offset="0" stop-color="#351212"/><stop offset="0.13" stop-color="#411616"/><stop offset="0.43" stop-color="#551d1d"/><stop offset="0.72" stop-color="#622121"/><stop offset="1" stop-color="#622"/></linearGradient><linearGradient id="c" x1="113.71" y1="67.66" x2="113.71" y2="1" xlink:href="#b"/><linearGradient id="d" x1="279.29" y1="79.1" x2="279.29" y2="12.39" xlink:href="#b"/><linearGradient id="e" x1="263.5" y1="67.67" x2="263.5" y2="1.01" xlink:href="#b"/><linearGradient id="f" x1="39.31" y1="301.34" x2="39.31" y2="222.87" gradientUnits="userSpaceOnUse"><stop offset="0" stop-color="#622"/><stop offset="0.28" stop-color="#583030"/><stop offset="0.64" stop-color="#4b3d3d"/><stop offset="1" stop-color="#474141"/></linearGradient><linearGradient id="g" x1="117.66" y1="299.98" x2="117.66" y2="224.12" xlink:href="#f"/><linearGradient id="h" x1="192.94" y1="299.98" x2="192.94" y2="224.12" xlink:href="#f"/><linearGradient id="i" x1="265.83" y1="299.98" x2="265.83" y2="224.12" xlink:href="#f"/><linearGradient id="j" x1="333.49" y1="299.98" x2="333.49" y2="224.12" xlink:href="#f"/></defs><title>Logo-CAEPA</title><path class="a" d="M175.73,114.34V215.61l-1.46.25-1.47.28-1.48.3-1.46.3-3.07.64c-1,.2-2,.39-3.06.55s-2,.3-3,.4-1.92.15-2.85.15h-.59a33.31,33.31,0,0,1-8.85-1.39,51.53,51.53,0,0,1-8.49-3.36c-2.76-1.35-5.43-2.9-8-4.48s-5-3.22-7.3-4.77c-1.56-1-3.07-2.06-4.51-3s-2.82-1.77-4.11-2.48a25.38,25.38,0,0,0-3.62-1.7,9.1,9.1,0,0,0-3.07-.63,7,7,0,0,0-1.28.14,15.44,15.44,0,0,0-1.58.37c-.57.16-1.19.35-1.86.56l-2.12.7c-1.55.51-3.31,1.09-5.25,1.68s-4.08,1.16-6.43,1.68-4.88,1-7.62,1.3a75.58,75.58,0,0,1-8.81.52,52.32,52.32,0,0,0-5.62.32,42.43,42.43,0,0,0-4.58.79c-1.38.32-2.62.68-3.74,1s-2.13.74-3.06,1.07l-1.71.62c-.55.19-1.08.36-1.59.5a14.66,14.66,0,0,1-1.51.34,9.35,9.35,0,0,1-1.49.12,26.38,26.38,0,0,1-3.91-.29,25.94,25.94,0,0,1-3.37-.71c-1-.29-2-.62-2.92-1s-1.76-.7-2.55-1c-.54-.23-1.07-.45-1.59-.65s-1-.38-1.49-.54a11.92,11.92,0,0,0-1.43-.37,7.31,7.31,0,0,0-1.38-.14h0a6,6,0,0,0-1,.08,9.76,9.76,0,0,0-1.11.22c-.38.09-.79.2-1.22.33l-1.38.43c-1.07.33-2.32.72-3.83,1.12s-3.3.81-5.41,1.17-4.58.7-7.46.93-6.2.39-10,.4V156c0-33.07,0-72.41,0-97.5V33.15A1.06,1.06,0,0,1,1,33v-.07c.27-.13,1.18.21,2.42.81s2.82,1.45,4.44,2.34A192.29,192.29,0,0,0,29.6,46.45,157.62,157.62,0,0,0,65.47,56c6,1.16,11.89,2.12,17.62,3S94.45,60.55,100,61.28c21.31,2.84,39.65,5.27,53,12.41s21.61,19,22.78,40.6ZM376.19,33.21a.69.69,0,0,0,0-.3c-.51-.27-3.59,1.4-6.85,3.17C359.84,41.23,340.09,52,311.72,56c-12,2.31-23.44,3.82-34.47,5.29-22.69,3-42,5.59-55.51,13.86-11.83,7.26-19.14,18.92-20.24,39.14l0,.16v101c10.32-.23,20.46-7.81,29.42-14.55,6.47-4.86,12.07-9.06,16.07-9.07,2.53,0,4.74,1.38,7.52,3.13,4.46,2.8,10,6.28,20.23,6.29h.09c12.61,0,16.82-2.09,19.61-3.47a7.8,7.8,0,0,1,3.7-1.13c1.7,0,3.43,1,5.62,2.31,3.6,2.12,8.09,4.75,15.31,4.75,3.2,0,5.93,1,8.81,2.08A32.68,32.68,0,0,0,340,208.45h.08a55.64,55.64,0,0,0,12.57-1.55,29,29,0,0,1,6-.9,27.69,27.69,0,0,1,6,.94,49.83,49.83,0,0,0,11.51,1.5Z"/><path class="b" d="M175.6,79.1c-10.76-19.52-37.2-26.78-68.29-34.89-10.76-2.81-21.89-5.71-33-9.32-23-6.27-35.42-14.12-42.84-18.8-4.26-2.7-6.62-4.17-8.33-3.57a3.46,3.46,0,0,0-1.92,2.39,10.67,10.67,0,0,0,.49,9.66c3,5.82,13.12,16.53,48.06,22.84,12.62,2.89,25.07,5,37.1,7,30.65,5.09,57.52,9.23,68.77,24.74Z"/><path class="c" d="M175.59,67.66C168,50.41,146.86,42.48,122,33.52c-8.47-3.06-17.23-6.22-26.12-10C77.12,16.61,67.3,9.13,61.43,4.66c-3.37-2.57-5.24-4-6.71-3.6a2.9,2.9,0,0,0-1.78,1.86A9,9,0,0,0,52.64,11c2,5.09,9.78,14.79,38.55,22.64,10.25,3.31,20.25,5.91,29.91,8.42,24.58,6.38,46.17,11.7,54.49,25.56Z"/><path class="d" d="M356,15a3.51,3.51,0,0,0-1.94-2.44c-1.72-.61-4.07.88-8.33,3.57-7.42,4.69-19.84,12.53-42.86,18.81-11.13,3.6-22.26,6.5-33,9.31-31.08,8.11-57.52,15.37-68.28,34.89h0c11.25-15.51,38.12-19.65,68.77-24.74,12-2,24.48-4.07,37.1-7,34.94-6.31,45.11-17,48.06-22.84C357.26,21.19,357.42,17.85,356,15Z"/><path class="e" d="M324.29,3c-.5-1.11-1.07-1.71-1.8-1.9-1.47-.38-3.34,1-6.71,3.6-5.87,4.47-15.69,11.94-34.49,18.89-8.86,3.75-17.62,6.91-26.09,10-24.84,9-45.93,16.89-53.57,34.14h0c8.32-13.86,29.9-19.18,54.48-25.56,9.66-2.51,19.66-5.1,29.91-8.42,28.77-7.85,36.5-17.55,38.55-22.64A8.94,8.94,0,0,0,324.29,3Z"/><path class="f" d="M1.21,262.1c0-23.43,18-39.24,41.17-39.24,20.47,0,30.48,11.6,35,22.06l-19.79,9.21a16.24,16.24,0,0,0-15.24-11c-10.46,0-17.85,8.42-17.85,19s7.39,19,17.85,19a16.24,16.24,0,0,0,15.24-11l19.79,9.1c-4.43,10.12-14.56,22.18-35,22.18C19.18,301.34,1.21,285.42,1.21,262.1Z"/><path class="g" d="M132.22,290.2H103.1l-3,9.78H75.24l28-75.86H132.1l28,75.86H135.17ZM109,271.09H126.3l-8.64-26.73Z"/><path class="h" d="M164.17,224.12h57.55v19.11H187.14v8.87h33.78V271.2H187.14v9.67h34.57V300H164.17Z"/><path class="i" d="M231.94,224.12h40.49c17.74,0,27.29,11.83,27.29,26s-9.55,25.48-27.29,25.48H254.91V300h-23Zm37.53,19.11H254.91v13.3h14.56c3.87,0,6.94-2.61,6.94-6.6S273.34,243.23,269.47,243.23Z"/><path class="j" d="M348.05,290.2H318.94L316,300H291.07l28-75.86h28.89l28,75.86H351Zm-23.2-19.11h17.29l-8.64-26.73Z"/></svg>