<svg xmlns="http://www.w3.org/2000/svg" xmlns:xlink="http://www.w3.org/1999/xlink" viewBox="0 0 480 384.3"><defs><style>.a,.b,.c,.d,.e,.f,.g{stroke:#212121;stroke-linejoin:round;stroke-width:2px;}.a{fill:url(#a);}.b{fill:url(#b);}.c{fill:url(#c);}.d{fill:url(#d);}.e{fill:url(#e);}.f{fill:url(#f);}.g{fill:url(#g);}</style><radialGradient id="a" cx="240" cy="254.98" r="374.99" gradientTransform="translate(0 152.99) scale(1 0.4)" gradientUnits="userSpaceOnUse"><stop offset="0.1" stop-color="#c93"/><stop offset="0.3" stop-color="#cc4d33"/><stop offset="0.44" stop-color="#a83e2d"/><stop offset="0.58" stop-color="#8b3228"/><stop offset="0.72" stop-color="#772925"/><stop offset="0.86" stop-color="#6a2423"/><stop offset="1" stop-color="#622"/></radialGradient><linearGradient id="b" x1="139.76" y1="342.15" x2="139.76" y2="237.84" gradientUnits="userSpaceOnUse"><stop offset="0" stop-color="#351212"/><stop offset="0.13" stop-color="#411616"/><stop offset="0.43" stop-color="#551d1d"/><stop offset="0.72" stop-color="#622121"/><stop offset="1" stop-color="#622"/></linearGradient><linearGradient id="c" x1="149.31" y1="120.24" x2="149.31" y2="53.53" xlink:href="#b"/><linearGradient id="d" x1="165.1" y1="108.81" x2="165.1" y2="42.15" xlink:href="#b"/><linearGradient id="e" x1="340.24" y1="342.16" x2="340.24" y2="233.02" xlink:href="#b"/><linearGradient id="f" x1="330.68" y1="120.25" x2="330.68" y2="53.53" xlink:href="#b"/><linearGradient id="g" x1="314.9" y1="108.81" x2="314.9" y2="42.16" xlink:href="#b"/></defs><title>titleicon-padding+</title><path class="a" d="M227.12,155.48V256.76l-1.45.25-1.48.28-1.48.3-1.47.3-3.07.64c-1,.2-2,.39-3.06.55s-2,.3-3,.4-1.93.15-2.85.15h-.59a33.41,33.41,0,0,1-8.85-1.39,51.58,51.58,0,0,1-8.48-3.36c-2.77-1.36-5.43-2.9-8-4.49s-5-3.22-7.29-4.76c-1.56-1-3.07-2.06-4.51-3s-2.82-1.77-4.11-2.48a25.5,25.5,0,0,0-3.63-1.69,9.09,9.09,0,0,0-3.07-.63,6.92,6.92,0,0,0-1.27.14,15.27,15.27,0,0,0-1.58.37c-.57.16-1.19.35-1.86.56l-2.12.7c-1.55.51-3.31,1.09-5.25,1.68s-4.09,1.16-6.43,1.67-4.89,1-7.62,1.31a75.81,75.81,0,0,1-8.81.52,52.49,52.49,0,0,0-5.61.32,42.49,42.49,0,0,0-4.58.79c-1.38.32-2.62.68-3.74,1s-2.13.75-3.06,1.08l-1.71.62c-.56.19-1.08.36-1.59.5a14.76,14.76,0,0,1-1.51.34,9.45,9.45,0,0,1-1.49.12,26.48,26.48,0,0,1-3.91-.29,25.93,25.93,0,0,1-3.37-.71c-1-.29-2-.62-2.92-1s-1.76-.71-2.55-1L88.19,246c-.52-.2-1-.38-1.49-.54a12.07,12.07,0,0,0-1.43-.37,7.34,7.34,0,0,0-1.38-.14h0a6,6,0,0,0-1,.08,9.46,9.46,0,0,0-1.11.22c-.39.09-.79.2-1.22.33l-1.38.43c-1.07.33-2.32.72-3.83,1.12s-3.3.82-5.41,1.18-4.58.7-7.47.93-6.19.39-10,.4V197.15c0-33.07,0-72.41,0-97.5V74.3a1,1,0,0,1,0-.15v-.07c.28-.14,1.19.21,2.43.81s2.81,1.45,4.44,2.34A192.63,192.63,0,0,0,81,87.6a157.88,157.88,0,0,0,35.87,9.53c6,1.16,11.88,2.11,17.62,3s11.35,1.6,16.87,2.33c21.31,2.83,39.66,5.26,53,12.4s21.61,19,22.78,40.6ZM427.59,74.36a.65.65,0,0,0,0-.3c-.51-.27-3.59,1.41-6.86,3.17-9.49,5.15-29.25,15.87-57.62,19.91-12,2.31-23.44,3.83-34.47,5.29-22.69,3-42,5.59-55.51,13.86-11.83,7.27-19.14,18.92-20.24,39.15V256.63c10.32-.23,20.46-7.81,29.42-14.54,6.47-4.86,12.07-9.06,16.07-9.07,2.53,0,4.73,1.38,7.52,3.13,4.46,2.8,10,6.28,20.23,6.29h.08c12.61,0,16.83-2.09,19.62-3.47a7.69,7.69,0,0,1,3.69-1.14c1.7,0,3.43,1,5.63,2.31,3.6,2.12,8.09,4.75,15.31,4.75,3.2,0,5.93,1,8.81,2.08a32.77,32.77,0,0,0,12.11,2.63h.07A55.07,55.07,0,0,0,404,248a29.09,29.09,0,0,1,6-.9,27.74,27.74,0,0,1,6,.94,49.42,49.42,0,0,0,11.52,1.51Z"/><path class="b" d="M227.12,256.76v21.39c0,6,0,12.85,0,19.74v44a.28.28,0,0,1,0,.09v.1h0a1.39,1.39,0,0,1-.85-.12,15.34,15.34,0,0,1-1.57-.65c-.62-.29-1.33-.64-2.08-1l-2.36-1.21c-2.38-1.23-5.39-2.78-9-4.49s-7.87-3.57-12.71-5.38a164.19,164.19,0,0,0-35.87-9.09c-3-.56-6-1.06-8.92-1.52s-5.84-.9-8.7-1.31-5.71-.78-8.52-1.15l-8.36-1.07c-10.65-1.34-20.56-2.6-29.48-4.36s-16.83-4.06-23.49-7.46a38.82,38.82,0,0,1-15.94-14.15c-3.89-6.24-6.25-14.22-6.84-24.51v-15c3.82,0,7.13-.16,10-.4s5.35-.56,7.47-.93,3.89-.77,5.41-1.18,2.76-.79,3.83-1.12l1.38-.43c.43-.13.83-.24,1.22-.33a9.46,9.46,0,0,1,1.11-.22,6,6,0,0,1,1-.08h0a7.34,7.34,0,0,1,1.38.14,12.07,12.07,0,0,1,1.43.37c.47.16,1,.34,1.49.54l1.59.65c.79.33,1.64.69,2.55,1s1.88.67,2.92,1a25.93,25.93,0,0,0,3.37.71,26.48,26.48,0,0,0,3.91.29,9.45,9.45,0,0,0,1.49-.12,14.76,14.76,0,0,0,1.51-.34c.51-.14,1-.31,1.59-.5l1.71-.62c.93-.33,1.93-.7,3.06-1.08s2.36-.72,3.74-1a42.49,42.49,0,0,1,4.58-.79,52.49,52.49,0,0,1,5.61-.32,75.81,75.81,0,0,0,8.81-.52c2.73-.34,5.28-.79,7.62-1.31s4.48-1.09,6.43-1.67,3.7-1.17,5.25-1.68l2.12-.7c.67-.21,1.29-.4,1.86-.56a15.27,15.27,0,0,1,1.58-.37,6.92,6.92,0,0,1,1.27-.14,9.09,9.09,0,0,1,3.07.63,25.5,25.5,0,0,1,3.63,1.69c1.29.71,2.66,1.56,4.11,2.48s3,1.94,4.51,3c2.3,1.54,4.74,3.18,7.29,4.76s5.22,3.13,8,4.49a51.58,51.58,0,0,0,8.48,3.36,33.41,33.41,0,0,0,8.85,1.39h.59c.92,0,1.87-.06,2.85-.15s2-.23,3-.4,2-.35,3.06-.55l3.07-.64,1.47-.3,1.48-.3,1.48-.28Z"/><path class="c" d="M227,120.24c-10.76-19.51-37.2-26.78-68.28-34.89C148,82.54,136.82,79.64,125.66,76c-23-6.27-35.42-14.11-42.84-18.8-4.26-2.69-6.61-4.17-8.33-3.57a3.47,3.47,0,0,0-1.92,2.39,10.7,10.7,0,0,0,.49,9.66c3,5.82,13.12,16.53,48.06,22.84,12.62,2.89,25.07,5,37.1,7,30.65,5.1,57.52,9.23,68.77,24.74Z"/><path class="d" d="M227,108.81c-7.64-17.25-28.74-25.18-53.57-34.14-8.48-3.06-17.24-6.22-26.12-10-18.79-6.94-28.61-14.41-34.48-18.88-3.37-2.57-5.23-4-6.71-3.6a2.92,2.92,0,0,0-1.78,1.86,9,9,0,0,0-.29,8.12c2,5.09,9.78,14.79,38.55,22.64,10.25,3.32,20.25,5.91,29.91,8.42C197.09,89.63,218.67,95,227,108.81Z"/><path class="e" d="M427.61,249.59v14.89l0,.15c-2.35,41.18-33.13,45.09-75.74,50.47-11,1.4-22.45,2.84-34.48,5-28.37,3.84-48.13,14.05-57.63,19-3.25,1.68-6.33,3.28-6.85,3a.82.82,0,0,1,0-.28V256.63c10.32-.23,20.46-7.81,29.42-14.54,6.47-4.86,12.07-9.06,16.07-9.07,2.53,0,4.73,1.38,7.52,3.13,4.46,2.8,10,6.28,20.23,6.29h.08c12.61,0,16.83-2.09,19.62-3.47a7.69,7.69,0,0,1,3.69-1.14c1.7,0,3.43,1,5.63,2.31,3.6,2.12,8.09,4.75,15.31,4.75,3.2,0,5.93,1,8.81,2.08a32.77,32.77,0,0,0,12.11,2.63h.07A55.07,55.07,0,0,0,404,248a29.09,29.09,0,0,1,6-.9,27.74,27.74,0,0,1,6,.94A49.42,49.42,0,0,0,427.61,249.59Z"/><path class="f" d="M407.44,56.1a3.51,3.51,0,0,0-1.94-2.43c-1.72-.61-4.07.87-8.33,3.57-7.42,4.68-19.84,12.53-42.86,18.8-11.13,3.6-22.26,6.51-33,9.32-31.08,8.11-57.52,15.37-68.28,34.89h0c11.25-15.51,38.12-19.65,68.77-24.74,12-2,24.48-4.07,37.1-7,34.93-6.31,45.11-17,48.06-22.83C408.65,62.34,408.82,59,407.44,56.1Z"/><path class="g" d="M375.68,44.11c-.5-1.1-1.07-1.71-1.8-1.89-1.47-.38-3.34,1-6.71,3.6-5.87,4.47-15.68,11.94-34.49,18.89-8.86,3.75-17.62,6.91-26.1,10-24.83,9-45.93,16.88-53.57,34.13h0c8.32-13.85,29.9-19.17,54.48-25.55,9.67-2.51,19.66-5.11,29.92-8.42C366.18,67,373.91,57.29,376,52.2A8.93,8.93,0,0,0,375.68,44.11Z"/></svg>
