<svg xmlns="http://www.w3.org/2000/svg" xmlns:xlink="http://www.w3.org/1999/xlink" viewBox="0 0 376.9 100.61"><defs><style>.a,.b,.c,.d,.e,.f{stroke:#212121;stroke-linejoin:round;stroke-width:2px;}.a{fill:url(#a);}.b{fill:url(#b);}.c{fill:url(#c);}.d{fill:url(#d);}.e{fill:url(#e);}.f{fill:url(#f);}.g{fill:#212121;}</style><linearGradient id="a" x1="41" y1="79.51" x2="41" y2="53.18" gradientUnits="userSpaceOnUse"><stop offset="0" stop-color="#351212"/><stop offset="0.13" stop-color="#411616"/><stop offset="0.43" stop-color="#551d1d"/><stop offset="0.72" stop-color="#622121"/><stop offset="1" stop-color="#622"/></linearGradient><linearGradient id="b" x1="117.51" y1="78.14" x2="117.51" y2="45.84" xlink:href="#a"/><linearGradient id="c" x1="192.83" y1="78.14" x2="192.83" y2="59.03" xlink:href="#a"/><linearGradient id="d" x1="260.77" y1="78.14" x2="260.77" y2="41.02" xlink:href="#a"/><linearGradient id="e" x1="333.46" y1="78.14" x2="333.46" y2="47.38" xlink:href="#a"/><radialGradient id="f" cx="185.43" cy="64.1" r="374.51" gradientTransform="translate(0 38.46) scale(1 0.4)" gradientUnits="userSpaceOnUse"><stop offset="0.1" stop-color="#c93"/><stop offset="0.3" stop-color="#cc4d33"/><stop offset="0.44" stop-color="#a83e2d"/><stop offset="0.58" stop-color="#8b3228"/><stop offset="0.72" stop-color="#772925"/><stop offset="0.86" stop-color="#6a2423"/><stop offset="1" stop-color="#622"/></radialGradient></defs><title>Logo-CAEPA</title><path class="a" d="M77.23,57.32c-4.43,10.13-14.56,22.19-35,22.19-16.88,0-31-8.41-37.43-22,2.2-.06,4.2-.18,6-.33,2.89-.23,5.35-.56,7.47-.93s3.89-.77,5.41-1.18,2.76-.79,3.83-1.12l1.39-.43.21-.06a17.19,17.19,0,0,0,13.08,5.78,15.66,15.66,0,0,0,7.13-1.71c.53,0,1.07.06,1.63.06a9.36,9.36,0,0,0,1.49-.12A14.18,14.18,0,0,0,54,57.15c.51-.14,1-.31,1.59-.5L57.25,56c.93-.33,1.93-.7,3.06-1.08s2.36-.72,3.74-1a42.14,42.14,0,0,1,4.17-.73Z"/><path class="b" d="M160,78.14H135l-3-9.78H103l-3,9.78H75.07l9.62-26.08c2.12-.3,4.13-.67,6-1.09,2.34-.51,4.49-1.09,6.43-1.67s3.7-1.17,5.26-1.68l2.12-.7q1-.33,1.86-.57a15.27,15.27,0,0,1,1.58-.37,7,7,0,0,1,1.27-.14,6.23,6.23,0,0,1,.74,0l-1.09,3.37h8.91c.73.44,1.48.91,2.25,1.4,1.45.92,3,1.94,4.52,3,2.3,1.54,4.74,3.18,7.29,4.76s5.23,3.13,8,4.49a51.63,51.63,0,0,0,8.48,3.37,33.86,33.86,0,0,0,7.75,1.35Z"/><path class="c" d="M221.62,59V78.14H164V67c.87-.14,1.74-.3,2.61-.47l3.07-.64,1.47-.3,1.48-.31,1.48-.28c3.09-.56,2.55-1.39,17.65-1.39,10.41,0,17.47.53,26.16-4.6Z"/><path class="d" d="M289.68,48.86c-4.41,3.11-10.21,4.94-17.32,4.94H254.84V78.14h-23V49.33c6-4.54,11.25-8.3,15-8.31,2.53,0,4.74,1.38,7.53,3.13,4.46,2.8,10,6.29,20.24,6.3h.09C282.14,50.45,286.66,49.73,289.68,48.86Z"/><path class="e" d="M375.9,78.14H351l-3-9.78H318.89l-2.95,9.78H291l11.34-30.76,1.34.77c3.61,2.12,8.1,4.75,15.32,4.75,3.2,0,5.94,1,8.82,2.08A32.77,32.77,0,0,0,340,57.61H340a55.09,55.09,0,0,0,12.58-1.56,29.19,29.19,0,0,1,6-.9,27.73,27.73,0,0,1,6.05.94c1,.24,2.13.48,3.35.71Z"/><path class="f" d="M57.43,32.29l19.8-9.22C72.68,12.61,62.67,1,42.19,1,19,1,1,16.81,1,40.25A40,40,0,0,0,4.76,57.53c2.2-.06,4.2-.18,6-.33,2.89-.23,5.35-.56,7.47-.93s3.89-.77,5.41-1.18,2.76-.79,3.83-1.12l1.39-.43.21-.06a19.78,19.78,0,0,1-4.79-13.23c0-10.57,7.4-19,17.87-19A16.23,16.23,0,0,1,57.43,32.29ZM49.32,57.55c.53,0,1.07.06,1.63.06a9.36,9.36,0,0,0,1.49-.12A14.18,14.18,0,0,0,54,57.15c.51-.14,1-.31,1.59-.5L57.25,56c.93-.33,1.93-.7,3.06-1.08s2.36-.72,3.74-1a42.14,42.14,0,0,1,4.17-.73l-10.79-5A16.31,16.31,0,0,1,49.32,57.55ZM132,2.25h-28.9L84.69,52.06c2.12-.3,4.13-.67,6-1.09,2.34-.51,4.49-1.09,6.43-1.67s3.7-1.17,5.26-1.68l2.12-.7q1-.33,1.86-.57a15.27,15.27,0,0,1,1.58-.37,7,7,0,0,1,1.27-.14,6.23,6.23,0,0,1,.74,0l7.56-23.38,8.65,26.75h-8.39c.73.44,1.48.91,2.25,1.4,1.45.92,3,1.94,4.52,3,2.3,1.54,4.74,3.18,7.29,4.76s5.23,3.13,8,4.49a51.63,51.63,0,0,0,8.48,3.37,33.86,33.86,0,0,0,7.75,1.35Zm89.66,19.11V2.25H164V67c.87-.14,1.74-.3,2.61-.47l3.07-.64,1.47-.3,1.48-.31,1.48-.28c3.09-.56,2.55-1.39,17.65-1.39,10.41,0,17.47.53,26.16-4.6H187V49.36h33.79V30.24H187V21.36ZM272.36,2.25h-40.5V49.33c6-4.54,11.25-8.3,15-8.31,2.53,0,4.74,1.38,7.53,3.13,4.46,2.8,10,6.29,20.24,6.3h.09c7.38,0,11.9-.72,14.92-1.59h0c6.56-4.64,10-12.11,10-20.56C299.67,14.09,290.12,2.25,272.36,2.25Zm-2.95,32.43H254.84V21.36h14.57a6.57,6.57,0,0,1,6.93,6.71C276.34,32.06,273.27,34.68,269.41,34.68Zm78.5-32.43H319L302.36,47.38l1.34.77c3.61,2.12,8.1,4.75,15.32,4.75,3.2,0,5.94,1,8.82,2.08A32.77,32.77,0,0,0,340,57.61H340a55.09,55.09,0,0,0,12.58-1.56,29.19,29.19,0,0,1,6-.9,27.73,27.73,0,0,1,6.05.94c1,.24,2.13.48,3.35.71Zm-23.09,47,8.64-26.75,8.65,26.75Z"/><path class="g" d="M.59,91.78a4.46,4.46,0,0,1,4.56-4.62,4,4,0,0,1,3.43,1.77l-.94.52a3,3,0,0,0-2.49-1.3,3.64,3.64,0,0,0,0,7.27,3,3,0,0,0,2.49-1.3l1,.52a4.07,4.07,0,0,1-3.45,1.77A4.46,4.46,0,0,1,.59,91.78Z"/><path class="g" d="M13.78,87.16a4.63,4.63,0,0,1,0,9.25,4.63,4.63,0,0,1,0-9.25Zm0,1c-2,0-3.29,1.54-3.29,3.63s1.27,3.64,3.29,3.64a3.32,3.32,0,0,0,3.28-3.64C17.06,89.69,15.77,88.15,13.78,88.15Z"/><path class="g" d="M19.89,87.3H21v8h4.16v1H19.89Z"/><path class="g" d="M30.14,87.16a4.63,4.63,0,1,1-4.44,4.62A4.37,4.37,0,0,1,30.14,87.16Zm0,1c-2,0-3.29,1.54-3.29,3.63s1.28,3.64,3.29,3.64,3.28-1.56,3.28-3.64S32.14,88.15,30.14,88.15Z"/><path class="g" d="M39.14,92.69H37.36v3.56H36.25v-9h3.59A2.61,2.61,0,0,1,42.65,90a2.47,2.47,0,0,1-2.32,2.6l2.41,3.65H41.43Zm.57-4.39H37.36v3.42h2.35a1.71,1.71,0,1,0,0-3.42Z"/><path class="g" d="M50.21,94.26H45.67l-.79,2H43.65l3.59-9h1.38l3.61,9H51Zm-4.22-1h3.88l-1.93-5Z"/><path class="g" d="M53.36,87.3h3.06a4.48,4.48,0,1,1,0,9H53.36Zm3.06,8a3.48,3.48,0,0,0,0-7h-2v7Z"/><path class="g" d="M66.68,87.16a4.63,4.63,0,1,1-4.44,4.62A4.37,4.37,0,0,1,66.68,87.16Zm0,1c-2,0-3.29,1.54-3.29,3.63s1.28,3.64,3.29,3.64S70,93.86,70,91.78,68.68,88.15,66.68,88.15Z"/><path class="g" d="M81.69,94.26H77.16l-.79,2H75.13l3.6-9h1.38l3.61,9H82.48Zm-4.21-1h3.88l-1.93-5Z"/><path class="g" d="M84.84,87.3H87.9a4.48,4.48,0,1,1,0,9H84.84Zm3.06,8a3.48,3.48,0,0,0,0-7H86v7Z"/><path class="g" d="M94.07,87.3h1.11v5.45a2.54,2.54,0,1,0,5.07,0V87.3h1.12v5.46a3.65,3.65,0,0,1-7.3,0Z"/><path class="g" d="M103.42,87.3h1.12v8h4.15v1h-5.27Z"/><path class="g" d="M111.11,88.3h-2.83v-1h6.79v1h-2.85v8h-1.11Z"/><path class="g" d="M119.74,87.3h5.86v1h-4.75v2.88h4.66v1h-4.66v3.09h4.75v1h-5.86Z"/><path class="g" d="M127.27,87.3h3.06a4.48,4.48,0,1,1,0,9h-3.06Zm3.06,8a3.48,3.48,0,0,0,0-7h-2v7Z"/><path class="g" d="M136.5,87.3h1.11v5.45a2.54,2.54,0,1,0,5.07,0V87.3h1.11v5.46a3.65,3.65,0,0,1-7.29,0Z"/><path class="g" d="M145.37,91.78a4.46,4.46,0,0,1,4.56-4.62,4,4,0,0,1,3.43,1.77l-.94.52a3,3,0,0,0-2.49-1.3,3.64,3.64,0,0,0,0,7.27,3,3,0,0,0,2.49-1.3l1,.52a4.06,4.06,0,0,1-3.44,1.77A4.46,4.46,0,0,1,145.37,91.78Z"/><path class="g" d="M160.45,94.26h-4.53l-.79,2h-1.24l3.6-9h1.38l3.61,9h-1.24Zm-4.21-1h3.87l-1.93-5Z"/><path class="g" d="M164.7,88.3h-2.83v-1h6.79v1h-2.85v8H164.7Z"/><path class="g" d="M169.93,87.3H171v9h-1.11Z"/><path class="g" d="M177.14,87.16a4.63,4.63,0,1,1-4.44,4.62A4.37,4.37,0,0,1,177.14,87.16Zm0,1c-2,0-3.29,1.54-3.29,3.63s1.27,3.64,3.29,3.64a3.32,3.32,0,0,0,3.28-3.64C180.42,89.69,179.13,88.15,177.14,88.15Z"/><path class="g" d="M184.36,89v7.22h-1.12v-9h1.14l5.15,7.07V87.3h1.12v9h-1.08Z"/><path class="g" d="M195.94,87.3h3.59a2.7,2.7,0,1,1,0,5.39h-2.48v3.56h-1.11Zm3.46,1h-2.35v3.4h2.35a1.7,1.7,0,1,0,0-3.4Z"/><path class="g" d="M206.51,92.69h-1.79v3.56h-1.11v-9h3.59A2.61,2.61,0,0,1,210,90a2.47,2.47,0,0,1-2.32,2.6l2.41,3.65h-1.31Zm.56-4.39h-2.35v3.42h2.35a1.71,1.71,0,1,0,0-3.42Z"/><path class="g" d="M215.62,87.16a4.63,4.63,0,1,1-4.44,4.62A4.37,4.37,0,0,1,215.62,87.16Zm0,1c-2,0-3.29,1.54-3.29,3.63s1.28,3.64,3.29,3.64,3.28-1.56,3.28-3.64S217.62,88.15,215.62,88.15Z"/><path class="g" d="M221.73,87.3h5.86v1h-4.75v2.88h4.66v1h-4.66v4.08h-1.11Z"/><path class="g" d="M228.92,87.3h5.86v1H230v2.88h4.66v1H230v3.09h4.75v1h-5.86Z"/><path class="g" d="M236.56,94.14a3.78,3.78,0,0,0,2.82,1.28c1.6,0,2.11-.86,2.11-1.54,0-1.08-1.09-1.37-2.27-1.7-1.43-.37-3-.77-3-2.53,0-1.47,1.31-2.48,3.07-2.48a4.21,4.21,0,0,1,3.18,1.25l-.67.81a3.45,3.45,0,0,0-2.59-1.07c-1.07,0-1.84.58-1.84,1.42s1,1.17,2.17,1.48c1.47.39,3.13.84,3.13,2.72,0,1.3-.88,2.63-3.3,2.63A4.42,4.42,0,0,1,235.91,95Z"/><path class="g" d="M244.3,94.14a3.78,3.78,0,0,0,2.82,1.28c1.6,0,2.11-.86,2.11-1.54,0-1.08-1.09-1.37-2.27-1.7-1.43-.37-3-.77-3-2.53,0-1.47,1.31-2.48,3.07-2.48a4.21,4.21,0,0,1,3.18,1.25l-.67.81a3.45,3.45,0,0,0-2.59-1.07c-1.07,0-1.84.58-1.84,1.42s1,1.17,2.18,1.48c1.46.39,3.12.84,3.12,2.72,0,1.3-.88,2.63-3.3,2.63A4.44,4.44,0,0,1,243.65,95Z"/><path class="g" d="M252,87.3h1.11v9H252Z"/><path class="g" d="M259.19,87.16a4.63,4.63,0,1,1-4.44,4.62A4.36,4.36,0,0,1,259.19,87.16Zm0,1c-2,0-3.28,1.54-3.28,3.63s1.27,3.64,3.28,3.64a3.65,3.65,0,0,0,0-7.27Z"/><path class="g" d="M266.41,89v7.22H265.3v-9h1.14l5.15,7.07V87.3h1.12v9h-1.08Z"/><path class="g" d="M280.39,94.26h-4.53l-.79,2h-1.24l3.6-9h1.38l3.61,9h-1.24Zm-4.21-1h3.88l-1.93-5Z"/><path class="g" d="M283.55,87.3h1.11v8h4.16v1h-5.27Z"/><path class="g" d="M299.22,94.26h-4.54l-.79,2h-1.23l3.59-9h1.38l3.61,9H300Zm-4.22-1h3.88l-1.93-5Z"/><path class="g" d="M302.54,94.14a3.78,3.78,0,0,0,2.82,1.28c1.6,0,2.11-.86,2.11-1.54,0-1.08-1.09-1.37-2.27-1.7-1.44-.37-3-.77-3-2.53,0-1.47,1.31-2.48,3.07-2.48a4.21,4.21,0,0,1,3.18,1.25l-.67.81a3.45,3.45,0,0,0-2.59-1.07c-1.07,0-1.84.58-1.84,1.42s1,1.17,2.17,1.48c1.47.39,3.13.84,3.13,2.72,0,1.3-.89,2.63-3.3,2.63A4.41,4.41,0,0,1,301.89,95Z"/><path class="g" d="M310.28,94.14a3.78,3.78,0,0,0,2.82,1.28c1.6,0,2.11-.86,2.11-1.54,0-1.08-1.09-1.37-2.27-1.7-1.43-.37-3-.77-3-2.53,0-1.47,1.31-2.48,3.07-2.48a4.21,4.21,0,0,1,3.18,1.25l-.67.81a3.45,3.45,0,0,0-2.59-1.07c-1.07,0-1.84.58-1.84,1.42s1,1.17,2.17,1.48c1.47.39,3.13.84,3.13,2.72,0,1.3-.89,2.63-3.3,2.63A4.42,4.42,0,0,1,309.63,95Z"/><path class="g" d="M321.9,87.16a4.63,4.63,0,1,1-4.44,4.62A4.37,4.37,0,0,1,321.9,87.16Zm0,1c-2,0-3.29,1.54-3.29,3.63s1.28,3.64,3.29,3.64,3.28-1.56,3.28-3.64S323.9,88.15,321.9,88.15Z"/><path class="g" d="M327.58,91.78a4.46,4.46,0,0,1,4.56-4.62,4,4,0,0,1,3.43,1.77l-.93.52a3,3,0,0,0-2.5-1.3,3.64,3.64,0,0,0,0,7.27,3,3,0,0,0,2.5-1.3l.95.52a4.07,4.07,0,0,1-3.45,1.77A4.47,4.47,0,0,1,327.58,91.78Z"/><path class="g" d="M336.9,87.3H338v9H336.9Z"/><path class="g" d="M345.68,94.26h-4.53l-.79,2h-1.23l3.59-9h1.38l3.61,9h-1.24Zm-4.21-1h3.88l-1.93-5Z"/><path class="g" d="M349.93,88.3H347.1v-1h6.79v1h-2.84v8h-1.12Z"/><path class="g" d="M355.16,87.3h1.12v9h-1.12Z"/><path class="g" d="M362.37,87.16a4.63,4.63,0,1,1-4.44,4.62A4.37,4.37,0,0,1,362.37,87.16Zm0,1c-2,0-3.29,1.54-3.29,3.63s1.28,3.64,3.29,3.64a3.65,3.65,0,0,0,0-7.27Z"/><path class="g" d="M369.59,89v7.22h-1.11v-9h1.14l5.15,7.07V87.3h1.11v9h-1.07Z"/></svg>
