<svg xmlns="http://www.w3.org/2000/svg" xmlns:xlink="http://www.w3.org/1999/xlink" viewBox="0 0 1357.5 302.01"><defs><style>.a,.b,.c,.d,.e,.f,.g,.h,.i,.j,.k,.l{stroke:#212121;stroke-width:2px;}.a,.b,.c,.d,.e{stroke-miterlimit:10;}.a{fill:url(#a);}.b{fill:url(#b);}.c{fill:url(#c);}.d{fill:url(#d);}.e{fill:url(#e);}.f,.g,.h,.i,.j,.k,.l{stroke-linejoin:round;}.f{fill:url(#f);}.g{fill:url(#g);}.h{fill:url(#h);}.i{fill:url(#i);}.j{fill:url(#j);}.k{fill:url(#k);}.l{fill:url(#l);}</style><linearGradient id="a" x1="499.16" y1="261.1" x2="499.16" y2="61.1" gradientUnits="userSpaceOnUse"><stop offset="0" stop-color="#622"/><stop offset="0.28" stop-color="#583030"/><stop offset="0.64" stop-color="#4b3d3d"/><stop offset="1" stop-color="#474141"/></linearGradient><linearGradient id="b" x1="698.86" y1="257.63" x2="698.86" y2="64.29" xlink:href="#a"/><linearGradient id="c" x1="890.72" y1="257.63" x2="890.72" y2="64.29" xlink:href="#a"/><linearGradient id="d" x1="1076.5" y1="257.63" x2="1076.5" y2="64.29" xlink:href="#a"/><linearGradient id="e" x1="1248.95" y1="257.63" x2="1248.95" y2="64.29" xlink:href="#a"/><radialGradient id="f" cx="188.61" cy="213.83" r="374.99" gradientTransform="translate(0 128.3) scale(1 0.4)" gradientUnits="userSpaceOnUse"><stop offset="0.1" stop-color="#c93"/><stop offset="0.3" stop-color="#cc4d33"/><stop offset="0.44" stop-color="#a83e2d"/><stop offset="0.58" stop-color="#8b3228"/><stop offset="0.72" stop-color="#772925"/><stop offset="0.86" stop-color="#6a2423"/><stop offset="1" stop-color="#622"/></radialGradient><linearGradient id="g" x1="88.36" y1="301" x2="88.36" y2="196.69" gradientUnits="userSpaceOnUse"><stop offset="0" stop-color="#351212"/><stop offset="0.13" stop-color="#411616"/><stop offset="0.43" stop-color="#551d1d"/><stop offset="0.72" stop-color="#622121"/><stop offset="1" stop-color="#622"/></linearGradient><linearGradient id="h" x1="97.92" y1="79.1" x2="97.92" y2="12.38" xlink:href="#g"/><linearGradient id="i" x1="113.71" y1="67.66" x2="113.71" y2="1" xlink:href="#g"/><linearGradient id="j" x1="288.85" y1="301.01" x2="288.85" y2="191.87" xlink:href="#g"/><linearGradient id="k" x1="279.29" y1="79.1" x2="279.29" y2="12.39" xlink:href="#g"/><linearGradient id="l" x1="263.5" y1="67.67" x2="263.5" y2="1.01" xlink:href="#g"/></defs><title>Logo-CAEPA</title><path class="a" d="M402.06,161.1c0-59.71,45.8-100,104.93-100,52.17,0,77.68,29.57,89.27,56.23l-50.44,23.48c-4.93-15.07-20-28.11-38.84-28.11-26.66,0-45.51,21.45-45.51,48.4s18.84,48.41,45.51,48.41c18.84,0,33.91-13,38.84-28.11l50.44,23.19C585,230.38,559.16,261.1,507,261.1,447.86,261.1,402.06,220.52,402.06,161.1Z"/><path class="b" d="M736,232.7h-74.2l-7.54,24.93H590.74L662,64.29h73.62L807,257.63H743.5ZM676.83,184h44.06l-22-68.11Z"/><path class="c" d="M817.39,64.29H964.05V113H875.94V135.6H962v48.69H875.94v24.64h88.11v48.69H817.39Z"/><path class="d" d="M990.12,64.29h103.19c45.22,0,69.56,30.15,69.56,66.38,0,35.94-24.34,64.93-69.56,64.93h-44.64v62H990.12Zm95.65,48.7h-37.1V146.9h37.1c9.86,0,17.68-6.66,17.68-16.81C1103.45,119.65,1095.63,113,1085.77,113Z"/><path class="e" d="M1286,232.7h-74.2l-7.54,24.93h-63.48l71.3-193.33h73.62l71.31,193.33h-63.48ZM1226.92,184H1271l-22-68.11Z"/><path class="f" d="M175.73,114.34V215.61l-1.46.25-1.47.28-1.48.3-1.46.3-3.07.64c-1,.2-2,.39-3.06.55s-2,.3-3,.4-1.92.15-2.85.15h-.59a33.31,33.31,0,0,1-8.85-1.39,51.53,51.53,0,0,1-8.49-3.36c-2.76-1.35-5.43-2.9-8-4.48s-5-3.22-7.3-4.77c-1.56-1-3.07-2.06-4.51-3s-2.82-1.77-4.11-2.48a25.38,25.38,0,0,0-3.62-1.7,9.1,9.1,0,0,0-3.07-.63,7,7,0,0,0-1.28.14,15.44,15.44,0,0,0-1.58.37c-.57.16-1.19.35-1.86.56l-2.12.7c-1.55.51-3.31,1.09-5.25,1.68s-4.08,1.16-6.43,1.68-4.88,1-7.62,1.3a75.58,75.58,0,0,1-8.81.52,52.32,52.32,0,0,0-5.62.32,42.43,42.43,0,0,0-4.58.79c-1.38.32-2.62.68-3.74,1s-2.13.74-3.06,1.07l-1.71.62c-.55.19-1.08.36-1.59.5a14.66,14.66,0,0,1-1.51.34,9.35,9.35,0,0,1-1.49.12,26.38,26.38,0,0,1-3.91-.29,25.94,25.94,0,0,1-3.37-.71c-1-.29-2-.62-2.92-1s-1.76-.7-2.55-1c-.54-.23-1.07-.45-1.59-.65s-1-.38-1.49-.54a11.92,11.92,0,0,0-1.43-.37,7.31,7.31,0,0,0-1.38-.14h0a6,6,0,0,0-1,.08,9.76,9.76,0,0,0-1.11.22c-.38.09-.79.2-1.22.33l-1.38.43c-1.07.33-2.32.72-3.83,1.12s-3.3.81-5.41,1.17-4.58.7-7.46.93-6.2.39-10,.4V156c0-33.07,0-72.41,0-97.5V33.15A1.06,1.06,0,0,1,1,33v-.07c.27-.13,1.18.21,2.42.81s2.82,1.45,4.44,2.34A192.29,192.29,0,0,0,29.6,46.45,157.62,157.62,0,0,0,65.47,56c6,1.16,11.89,2.12,17.62,3S94.45,60.55,100,61.28c21.31,2.84,39.65,5.27,53,12.41s21.61,19,22.78,40.6ZM376.19,33.21a.69.69,0,0,0,0-.3c-.51-.27-3.59,1.4-6.85,3.17C359.84,41.23,340.09,52,311.72,56c-12,2.31-23.44,3.82-34.47,5.29-22.69,3-42,5.59-55.51,13.86-11.83,7.26-19.14,18.92-20.24,39.14l0,.16v101c10.32-.23,20.46-7.81,29.42-14.55,6.47-4.86,12.07-9.06,16.07-9.07,2.53,0,4.74,1.38,7.52,3.13,4.46,2.8,10,6.28,20.23,6.29h.09c12.61,0,16.82-2.09,19.61-3.47a7.8,7.8,0,0,1,3.7-1.13c1.7,0,3.43,1,5.62,2.31,3.6,2.12,8.09,4.75,15.31,4.75,3.2,0,5.93,1,8.81,2.08A32.68,32.68,0,0,0,340,208.45h.08a55.64,55.64,0,0,0,12.57-1.55,29,29,0,0,1,6-.9,27.69,27.69,0,0,1,6,.94,49.83,49.83,0,0,0,11.51,1.5Z"/><path class="g" d="M175.73,215.61V237c0,6,0,12.85,0,19.73v44a.3.3,0,0,1,0,.09v.1h0a1.4,1.4,0,0,1-.85-.12,15.47,15.47,0,0,1-1.57-.64c-.62-.29-1.32-.64-2.08-1L168.86,298c-2.38-1.22-5.39-2.78-9-4.48s-7.88-3.57-12.71-5.39A164.45,164.45,0,0,0,111.26,279c-3-.55-6-1.05-8.92-1.51s-5.84-.9-8.7-1.31-5.71-.78-8.52-1.14L76.76,274c-10.65-1.34-20.56-2.6-29.48-4.36s-16.83-4.05-23.48-7.45A38.8,38.8,0,0,1,7.85,248C4,241.75,1.59,233.78,1,223.48v-15c3.81,0,7.13-.16,10-.4s5.34-.56,7.46-.93,3.89-.77,5.41-1.17,2.76-.79,3.83-1.12l1.38-.43c.43-.13.84-.24,1.22-.33a9.76,9.76,0,0,1,1.11-.22,6,6,0,0,1,1-.08h0a7.31,7.31,0,0,1,1.38.14,11.92,11.92,0,0,1,1.43.37q.72.24,1.49.54c.52.2,1,.42,1.59.65.8.33,1.64.68,2.55,1s1.88.67,2.92,1a25.94,25.94,0,0,0,3.37.71,26.38,26.38,0,0,0,3.91.29,9.35,9.35,0,0,0,1.49-.12,14.66,14.66,0,0,0,1.51-.34c.51-.14,1-.31,1.59-.5l1.71-.62c.93-.33,1.93-.7,3.06-1.07s2.36-.72,3.74-1a42.43,42.43,0,0,1,4.58-.79,52.32,52.32,0,0,1,5.62-.32,75.58,75.58,0,0,0,8.81-.52c2.73-.33,5.28-.78,7.62-1.3s4.49-1.09,6.43-1.68,3.7-1.16,5.25-1.68l2.12-.7c.67-.21,1.29-.4,1.86-.56a15.44,15.44,0,0,1,1.58-.37,7,7,0,0,1,1.28-.14,9.1,9.1,0,0,1,3.07.63,25.38,25.38,0,0,1,3.62,1.7c1.3.71,2.67,1.55,4.11,2.48s2.95,1.94,4.51,3c2.3,1.54,4.74,3.18,7.3,4.77s5.22,3.13,8,4.48a51.53,51.53,0,0,0,8.49,3.36,33.31,33.31,0,0,0,8.85,1.39h.59c.92,0,1.87-.06,2.85-.15s2-.23,3-.4,2-.35,3.06-.55l3.07-.64,1.46-.3,1.48-.3,1.47-.28Z"/><path class="h" d="M175.6,79.1c-10.76-19.52-37.2-26.78-68.29-34.89-10.76-2.81-21.89-5.71-33-9.32-23-6.27-35.42-14.12-42.84-18.8-4.26-2.7-6.62-4.17-8.33-3.57a3.46,3.46,0,0,0-1.92,2.39,10.67,10.67,0,0,0,.49,9.66c3,5.82,13.12,16.53,48.06,22.84,12.62,2.89,25.07,5,37.1,7,30.65,5.09,57.52,9.23,68.77,24.74Z"/><path class="i" d="M175.59,67.66C168,50.41,146.86,42.48,122,33.52c-8.47-3.06-17.23-6.22-26.12-10C77.12,16.61,67.3,9.13,61.43,4.66c-3.37-2.57-5.24-4-6.71-3.6a2.9,2.9,0,0,0-1.78,1.86A9,9,0,0,0,52.64,11c2,5.09,9.78,14.79,38.55,22.64,10.25,3.31,20.25,5.91,29.91,8.42,24.58,6.38,46.17,11.7,54.49,25.56Z"/><path class="j" d="M376.21,208.44v14.89l0,.15c-2.34,41.19-33.13,45.09-75.74,50.48-11,1.39-22.45,2.84-34.48,5-28.37,3.84-48.13,14.05-57.63,19-3.25,1.69-6.33,3.28-6.84,3,0,0,0-.05,0-.28,0,0,0-11.3,0-25.64V215.48c10.32-.23,20.46-7.81,29.42-14.55,6.47-4.86,12.07-9.06,16.07-9.07,2.53,0,4.74,1.38,7.52,3.13,4.46,2.8,10,6.28,20.23,6.29h.09c12.61,0,16.82-2.09,19.61-3.47a7.8,7.8,0,0,1,3.7-1.13c1.7,0,3.43,1,5.62,2.31,3.6,2.12,8.09,4.75,15.31,4.75,3.2,0,5.93,1,8.81,2.08A32.68,32.68,0,0,0,340,208.45h.08a55.64,55.64,0,0,0,12.57-1.55,29,29,0,0,1,6-.9,27.69,27.69,0,0,1,6,.94A49.83,49.83,0,0,0,376.21,208.44Z"/><path class="k" d="M356,15a3.51,3.51,0,0,0-1.94-2.44c-1.72-.61-4.07.88-8.33,3.57-7.42,4.69-19.84,12.53-42.86,18.81-11.13,3.6-22.26,6.5-33,9.31-31.08,8.11-57.52,15.37-68.28,34.89h0c11.25-15.51,38.12-19.65,68.77-24.74,12-2,24.48-4.07,37.1-7,34.94-6.31,45.11-17,48.06-22.84C357.26,21.19,357.42,17.85,356,15Z"/><path class="l" d="M324.29,3c-.5-1.11-1.07-1.71-1.8-1.9-1.47-.38-3.34,1-6.71,3.6-5.87,4.47-15.69,11.94-34.49,18.89-8.86,3.75-17.62,6.91-26.09,10-24.84,9-45.93,16.89-53.57,34.14h0c8.32-13.86,29.9-19.18,54.48-25.56,9.66-2.51,19.66-5.1,29.91-8.42,28.77-7.85,36.5-17.55,38.55-22.64A8.94,8.94,0,0,0,324.29,3Z"/></svg>