<svg xmlns="http://www.w3.org/2000/svg" xmlns:xlink="http://www.w3.org/1999/xlink" viewBox="0 0 192 192"><defs><style>.a,.b,.c,.d,.e,.f,.g{stroke:#212121;stroke-linejoin:round;stroke-width:2px;}.a{fill:url(#a);}.b{fill:url(#b);}.c{fill:url(#c);}.d{fill:url(#d);}.e{fill:url(#e);}.f{fill:url(#f);}.g{fill:url(#g);}</style><radialGradient id="a" cx="95.99" cy="127.7" r="191.89" gradientTransform="translate(1.01 77.27) scale(0.99 0.4)" gradientUnits="userSpaceOnUse"><stop offset="0.1" stop-color="#c93"/><stop offset="0.3" stop-color="#cc4d33"/><stop offset="0.44" stop-color="#a83e2d"/><stop offset="0.58" stop-color="#8b3228"/><stop offset="0.72" stop-color="#772925"/><stop offset="0.86" stop-color="#6a2423"/><stop offset="1" stop-color="#622"/></radialGradient><linearGradient id="b" x1="45.24" y1="171.95" x2="45.24" y2="119.13" gradientUnits="userSpaceOnUse"><stop offset="0" stop-color="#351212"/><stop offset="0.13" stop-color="#411616"/><stop offset="0.43" stop-color="#551d1d"/><stop offset="0.72" stop-color="#622121"/><stop offset="1" stop-color="#622"/></linearGradient><linearGradient id="c" x1="50.08" y1="59.59" x2="50.08" y2="25.8" xlink:href="#b"/><linearGradient id="d" x1="58.07" y1="53.8" x2="58.07" y2="20.04" xlink:href="#b"/><linearGradient id="e" x1="146.76" y1="171.96" x2="146.76" y2="116.69" xlink:href="#b"/><linearGradient id="f" x1="141.92" y1="59.59" x2="141.92" y2="25.81" xlink:href="#b"/><linearGradient id="g" x1="133.93" y1="53.8" x2="133.93" y2="20.05" xlink:href="#b"/></defs><title>icon</title><path class="a" d="M89.48,77.43v51.28l-.74.13L88,129l-.75.15-.74.15-1.55.33c-.52.1-1,.2-1.55.28s-1,.15-1.51.2-1,.08-1.44.08h-.3a16.87,16.87,0,0,1-4.48-.71,26.1,26.1,0,0,1-4.3-1.7c-1.4-.69-2.75-1.47-4-2.27s-2.53-1.63-3.69-2.41c-.79-.53-1.55-1-2.28-1.51s-1.43-.89-2.08-1.25a12.85,12.85,0,0,0-1.84-.86,4.61,4.61,0,0,0-1.55-.32,3.54,3.54,0,0,0-.65.07,7.82,7.82,0,0,0-.8.19l-.94.28-1.07.36c-.78.26-1.67.55-2.66.85s-2.07.59-3.26.85-2.47.49-3.86.66a38.27,38.27,0,0,1-4.46.26,26.49,26.49,0,0,0-2.84.16,21.48,21.48,0,0,0-2.32.4c-.7.16-1.33.35-1.89.53s-1.08.38-1.55.54l-.87.31c-.28.1-.55.18-.8.25a7.42,7.42,0,0,1-.77.17,4.74,4.74,0,0,1-.76.06,13.36,13.36,0,0,1-2-.15,13.13,13.13,0,0,1-1.71-.36c-.53-.15-1-.32-1.48-.49l-1.29-.52-.8-.33-.76-.27a6,6,0,0,0-.72-.19,3.7,3.7,0,0,0-.7-.07h0a3.06,3.06,0,0,0-.52,0,4.94,4.94,0,0,0-.56.11l-.62.17-.7.22c-.54.17-1.17.37-1.94.57s-1.67.41-2.74.59-2.32.36-3.78.47-3.14.2-5.07.2V98.53C1,81.79,1,61.86,1,49.16V36.32a.54.54,0,0,1,0-.08v0c.14-.07.6.11,1.23.41s1.43.74,2.25,1.18a97.37,97.37,0,0,0,11,5.25,79.82,79.82,0,0,0,18.16,4.83c3,.59,6,1.07,8.92,1.5s5.75.81,8.54,1.18C61.9,52,71.2,53.23,77.94,56.85s10.94,9.61,11.54,20.56ZM191,36.35a.35.35,0,0,0,0-.15c-.26-.14-1.82.71-3.47,1.61a83.79,83.79,0,0,1-29.18,10.08c-6.09,1.17-11.87,1.94-17.46,2.68-11.49,1.53-21.28,2.83-28.11,7-6,3.68-9.69,9.58-10.25,19.82v51.24c5.23-.12,10.36-4,14.9-7.37,3.28-2.46,6.11-4.59,8.14-4.59,1.28,0,2.4.7,3.81,1.58a17.31,17.31,0,0,0,10.24,3.18h0c6.38,0,8.52-1.06,9.93-1.76a4,4,0,0,1,1.87-.57,6.19,6.19,0,0,1,2.85,1.17,14.08,14.08,0,0,0,7.75,2.41,12.47,12.47,0,0,1,4.46,1.05,16.55,16.55,0,0,0,6.13,1.33h0a28.18,28.18,0,0,0,6.37-.79,14.7,14.7,0,0,1,3.05-.46,14,14,0,0,1,3.06.48,25.23,25.23,0,0,0,5.83.76Z"/><path class="b" d="M89.48,128.71v10.84c0,3.06,0,6.51,0,10v22.3a.15.15,0,0,1,0,0v.05h0a.71.71,0,0,1-.43-.06,7.84,7.84,0,0,1-.79-.33L87.2,171l-1.2-.61c-1.2-.62-2.73-1.41-4.57-2.27s-4-1.81-6.44-2.73a83.27,83.27,0,0,0-18.16-4.6c-1.53-.28-3-.53-4.52-.77s-3-.46-4.41-.67l-4.31-.58-4.23-.54c-5.39-.68-10.41-1.32-14.93-2.21a46,46,0,0,1-11.89-3.77,19.65,19.65,0,0,1-8.07-7.17C2.5,142,1.3,137.91,1,132.7v-7.61c1.93,0,3.61-.08,5.07-.2s2.71-.28,3.78-.47,2-.39,2.74-.59,1.4-.4,1.94-.57l.7-.22.62-.17a4.94,4.94,0,0,1,.56-.11,3.06,3.06,0,0,1,.52,0h0a3.7,3.7,0,0,1,.7.07,6,6,0,0,1,.72.19l.76.27.8.33,1.29.52c.46.17,1,.34,1.48.49a13.13,13.13,0,0,0,1.71.36,13.36,13.36,0,0,0,2,.15,4.74,4.74,0,0,0,.76-.06,7.42,7.42,0,0,0,.77-.17c.26-.07.52-.16.8-.25l.87-.31c.47-.17,1-.36,1.55-.54s1.19-.37,1.89-.53a21.48,21.48,0,0,1,2.32-.4,26.49,26.49,0,0,1,2.84-.16,38.27,38.27,0,0,0,4.46-.26c1.38-.17,2.67-.4,3.86-.66s2.27-.55,3.26-.85,1.87-.59,2.66-.85l1.07-.36.94-.28a7.82,7.82,0,0,1,.8-.19,3.54,3.54,0,0,1,.65-.07,4.61,4.61,0,0,1,1.55.32,12.85,12.85,0,0,1,1.84.86c.66.36,1.35.79,2.08,1.25s1.49,1,2.28,1.51c1.16.78,2.4,1.61,3.69,2.41s2.64,1.58,4,2.27a26.1,26.1,0,0,0,4.3,1.7,16.87,16.87,0,0,0,4.48.71h.3c.47,0,.95,0,1.44-.08s1-.12,1.51-.2,1-.18,1.55-.28l1.55-.33.74-.15L88,129l.75-.14Z"/><path class="c" d="M89.41,59.59C84,49.7,70.57,46,54.83,41.92,49.39,40.5,43.75,39,38.1,37.2a73,73,0,0,1-21.69-9.52c-2.16-1.36-3.35-2.11-4.22-1.81a1.75,1.75,0,0,0-1,1.21A5.4,5.4,0,0,0,11.46,32C13,34.92,18.11,40.34,35.8,43.54,42.19,45,48.5,46,54.59,47.06c15.52,2.58,29.13,4.67,34.82,12.53Z"/><path class="d" d="M89.41,53.8C85.54,45.06,74.86,41,62.28,36.51,58,35,53.56,33.36,49.06,31.46A61.33,61.33,0,0,1,31.6,21.9c-1.71-1.3-2.65-2-3.4-1.82a1.47,1.47,0,0,0-.9.94,4.54,4.54,0,0,0-.15,4.11c1,2.58,5,7.49,19.52,11.47,5.19,1.68,10.25,3,15.15,4.26C74.27,44.08,85.2,46.78,89.41,53.8Z"/><path class="e" d="M191,125.09v7.61c-1.19,20.86-16.78,22.83-38.35,25.56-5.59.71-11.37,1.44-17.46,2.56a86.43,86.43,0,0,0-29.18,9.6c-1.65.85-3.21,1.66-3.47,1.53,0,0,0,0,0-.14s0-5.72,0-13V128.65c5.23-.12,10.36-4,14.9-7.37,3.28-2.46,6.11-4.59,8.14-4.59,1.28,0,2.4.7,3.81,1.58a17.31,17.31,0,0,0,10.24,3.18h0c6.38,0,8.52-1.06,9.93-1.76a4,4,0,0,1,1.87-.57,6.19,6.19,0,0,1,2.85,1.17,14.08,14.08,0,0,0,7.75,2.41,12.47,12.47,0,0,1,4.46,1.05,16.55,16.55,0,0,0,6.13,1.33h0a28.18,28.18,0,0,0,6.37-.79,14.7,14.7,0,0,1,3.05-.46,14,14,0,0,1,3.06.48A25.23,25.23,0,0,0,191,125.09Z"/><path class="f" d="M180.79,27.11a1.78,1.78,0,0,0-1-1.23c-.87-.31-2.06.44-4.22,1.81a73,73,0,0,1-21.7,9.52c-5.64,1.82-11.27,3.29-16.72,4.72C121.43,46,108,49.71,102.59,59.59h0c5.7-7.85,19.3-9.95,34.82-12.53,6.09-1,12.4-2.06,18.79-3.52C173.89,40.34,179,34.92,180.53,32A5.39,5.39,0,0,0,180.79,27.11Z"/><path class="g" d="M164.71,21c-.25-.56-.54-.87-.91-1-.75-.19-1.69.52-3.4,1.82a61.36,61.36,0,0,1-17.47,9.57c-4.49,1.9-8.92,3.5-13.21,5-12.58,4.54-23.26,8.55-27.13,17.29h0c4.21-7,15.14-9.71,27.59-12.94,4.89-1.27,10-2.58,15.15-4.26,14.57-4,18.48-8.89,19.52-11.47A4.53,4.53,0,0,0,164.71,21Z"/></svg>