<svg xmlns="http://www.w3.org/2000/svg" xmlns:xlink="http://www.w3.org/1999/xlink" viewBox="0 0 1653.1 301.06"><defs><style>.cls-1{fill:#7a7a7a;stroke-width:3px;}.cls-1,.cls-2,.cls-3{stroke:#212121;stroke-miterlimit:10;}.cls-2,.cls-3{stroke-width:2px;}.cls-2{fill:url(#radial-gradient);}.cls-3{fill:#6c2d2d;}</style><radialGradient id="radial-gradient" cx="199.84" cy="298.59" r="275.28" gradientUnits="userSpaceOnUse"><stop offset="0.2" stop-color="#7472b9"/><stop offset="0.25" stop-color="#4a7956"/><stop offset="0.3" stop-color="#b9a73a"/><stop offset="0.38" stop-color="#b9833a"/><stop offset="0.47" stop-color="#b95b3a"/><stop offset="0.55" stop-color="#b9433a"/><stop offset="0.6" stop-color="#b93a3a"/><stop offset="1" stop-color="#6c2d2d"/></radialGradient></defs><title>banner</title><g id="recolor-2" data-name="recolor"><path class="cls-1" d="M457.86,150.53c0-74.64,57.25-125,131.16-125,65.22,0,97.1,37,111.59,70.29l-63,29.35C631.41,106.33,612.57,90,589,90c-33.33,0-56.89,26.81-56.89,60.51S555.69,211,589,211c23.55,0,42.39-16.31,48.55-35.15l63,29c-14.13,32.25-46.38,70.65-111.59,70.65C515.11,275.53,457.86,224.81,457.86,150.53Z"/><path class="cls-1" d="M875.25,240H782.49l-9.42,31.16H693.72L782.85,29.52h92L964,271.18H884.66Zm-73.91-60.87H856.4L828.87,94Z"/><path class="cls-1" d="M977,29.52h183.33V90.39H1050.23v28.26h107.61v60.87H1050.23v30.8h110.15v60.87H977Z"/><path class="cls-1" d="M1193,29.52h129c56.52,0,87,37.68,87,83,0,44.93-30.44,81.16-87,81.16h-55.8v77.54H1193Zm119.57,60.87h-46.38v42.39h46.38c12.32,0,22.1-8.33,22.1-21C1334.65,98.72,1324.86,90.39,1312.54,90.39Z"/><path class="cls-1" d="M1562.9,240h-92.75l-9.42,31.16h-79.35l89.13-241.67h92l89.13,241.67h-79.35ZM1489,179.15h55.07L1516.52,94Z"/><path class="cls-2" d="M1.68,57.1V33c0-.14,0-.2,0-.21.59-.26,3.85,1.32,7.31,3a190.23,190.23,0,0,0,61.35,18.9c12.83,2.2,25,3.64,36.74,5,45.38,5.37,78.17,9.26,80.67,50.33V214c-2.12.32-4.32.75-6.46,1.17-4.52.89-9.2,1.79-13.15,1.71-12.43-.16-24.5-7.73-34.19-13.8-6.78-4.25-12.64-7.92-16.87-7.92-1.74,0-4.2.76-7.6,1.82-6.54,2-16.43,5.1-29.62,5.12a51.56,51.56,0,0,0-18.44,3.28,20.23,20.23,0,0,1-6.36,1.52,34,34,0,0,1-13.21-2.92c-2.42-.95-4.52-1.77-6.65-1.78a19.11,19.11,0,0,0-5.39,1.1c-4.51,1.33-12,3.54-28.15,3.59V57.1Z"/><path class="cls-2" d="M236.21,72.91c-12.52,6.9-20.25,18-21.42,37.17V213.85c10.6-.23,21.18-7.7,30.53-14.31,7-4.95,13-9.22,17.6-9.23,3,0,5.53,1.51,8.49,3.26,4.62,2.73,10.37,6.12,20.88,6.13h.08c13.11,0,17.44-2,20.31-3.36a9.59,9.59,0,0,1,4.35-1.23c2.07,0,4.1,1.13,6.46,2.43,3.71,2.05,8.32,4.61,15.72,4.61,3.54,0,6.51,1,9.65,2.13a35.07,35.07,0,0,0,12.46,2.56h.07a60.81,60.81,0,0,0,13.1-1.53,33,33,0,0,1,6.62-.92,31.89,31.89,0,0,1,6.58,1,54.34,54.34,0,0,0,12,1.48V33.09a.66.66,0,0,0,0-.28c-.54-.26-3.8,1.33-7.25,3a188.15,188.15,0,0,1-61,18.9c-12.73,2.2-24.8,3.64-36.47,5C270.93,62.61,250.47,65,236.21,72.91Z"/><path class="cls-3" d="M187.74,275.93v-61c-2.05.32-4.18.73-6.26,1.14a69.83,69.83,0,0,1-12.74,1.74h-.63c-12.72-.17-24.93-7.82-34.73-14-6.64-4.16-12.38-7.76-16.31-7.76-1.58,0-4.09.78-7.28,1.77-6.6,2.05-16.58,5.15-29.93,5.17a50.6,50.6,0,0,0-18.09,3.22,20.92,20.92,0,0,1-6.72,1.57,34.92,34.92,0,0,1-13.58-3,18.43,18.43,0,0,0-6.27-1.7h0a18.76,18.76,0,0,0-5.05,1.06c-4.57,1.34-12.19,3.58-28.45,3.63v.36c0,2.26,0,14.48,0,14.48v.14c2.5,41.07,35.29,45,80.67,50.33,11.75,1.39,23.91,2.83,36.74,5A190.22,190.22,0,0,1,180.44,297c3.46,1.67,6.72,3.26,7.31,3,0,0,0-.07,0-.21Z"/><path class="cls-3" d="M188,78.59c-11.46-19.46-40-26.44-73.15-34.52-11.46-2.8-23.31-5.69-35.19-9.29C55.2,28.52,42,20.71,34.08,16c-4.54-2.69-7-4.16-8.87-3.56a3.52,3.52,0,0,0-2,2.38c-1.49,2.93-1.31,6.26.52,9.63,3.14,5.8,14,16.48,51.18,22.77,13.44,2.88,26.7,4.94,39.52,6.93,32.64,5.08,60.83,9.46,72.81,24.92Z"/><path class="cls-3" d="M188,67.26c-8.14-17.2-31-24.91-57.43-33.84-9-3-18.35-6.2-27.81-9.94C82.73,16.56,72.28,9.1,66,4.65c-3.59-2.56-5.58-4-7.15-3.59A3,3,0,0,0,57,2.91a8.44,8.44,0,0,0-.31,8.1c2.18,5.07,10.42,14.75,41.06,22.57,10.92,3.3,21.57,5.89,31.86,8.39,26.18,6.36,48.79,11.85,57.65,25.67Z"/><path class="cls-3" d="M214.79,274.2V214.81c10.93-.23,21.65-7.8,31.13-14.5,6.86-4.85,12.78-9,17-9,2.69,0,5,1.38,8,3.12,4.73,2.79,10.61,6.26,21.41,6.27h.08c13.34,0,17.8-2.08,20.75-3.46a8.66,8.66,0,0,1,3.91-1.13c1.8,0,3.63,1,6,2.3,3.81,2.11,8.56,4.74,16.2,4.74,3.39,0,6.27,1,9.32,2.07a36.43,36.43,0,0,0,12.81,2.62h.07a61.72,61.72,0,0,0,13.31-1.55,32.32,32.32,0,0,1,6.38-.9,31.13,31.13,0,0,1,6.38.94,55.51,55.51,0,0,0,12.18,1.5v15c-2.48,41.07-35.06,45-80.14,50.32-11.68,1.39-23.75,2.83-36.47,5A188.14,188.14,0,0,0,222,297c-3.45,1.68-6.7,3.27-7.25,3a.66.66,0,0,1,0-.28Z"/><path class="cls-3" d="M378.31,14.9a3.56,3.56,0,0,0-2.05-2.43c-1.82-.61-4.31.87-8.82,3.56-7.85,4.67-21,12.49-45.34,18.75-11.78,3.59-23.55,6.48-34.94,9.28-32.88,8.08-61.28,15.07-72.67,34.52l.85.52c11.91-15.46,39.91-19.85,72.33-24.92,12.73-2,25.9-4.05,39.25-6.93,37-6.29,47.72-17,50.85-22.77C379.58,21.12,379.76,17.79,378.31,14.9Z"/><path class="cls-3" d="M344.71,3a3,3,0,0,0-1.9-1.89c-1.56-.38-3.53,1-7.1,3.59-6.21,4.45-16.6,11.91-36.49,18.83-9.38,3.74-18.64,6.89-27.61,9.94-26.28,8.93-49,16.65-57.05,33.84l.75.37c8.8-13.81,31.26-19.31,57.27-25.67,10.22-2.5,20.8-5.09,31.65-8.39C334.65,25.76,342.83,16.08,345,11A8.46,8.46,0,0,0,344.71,3Z"/></g></svg>