<svg xmlns="http://www.w3.org/2000/svg" xmlns:xlink="http://www.w3.org/1999/xlink" viewBox="0 0 1651.67 371.07"><defs><style>.cls-1{fill:#7a7a7a;stroke-width:3px;}.cls-1,.cls-2,.cls-3{stroke:#212121;stroke-miterlimit:10;}.cls-2,.cls-3{stroke-width:2px;}.cls-2{fill:url(#radial-gradient);}.cls-3{fill:#6c2d2d;}.cls-4{fill:#212121;}</style><radialGradient id="radial-gradient" cx="199.84" cy="298.59" r="275.28" gradientUnits="userSpaceOnUse"><stop offset="0.2" stop-color="#7472b9"/><stop offset="0.25" stop-color="#4a7956"/><stop offset="0.3" stop-color="#b9a73a"/><stop offset="0.38" stop-color="#b9833a"/><stop offset="0.47" stop-color="#b95b3a"/><stop offset="0.55" stop-color="#b9433a"/><stop offset="0.6" stop-color="#b93a3a"/><stop offset="1" stop-color="#6c2d2d"/></radialGradient></defs><title>horzontal</title><g id="recolor"><path class="cls-1" d="M454.76,151c0-74.64,57.25-125,131.16-125,65.22,0,97.1,37,111.59,70.29l-63,29.35c-6.16-18.84-25-35.14-48.55-35.14C552.59,90.49,529,117.3,529,151s23.55,60.51,56.89,60.51c23.55,0,42.39-16.31,48.55-35.15l63,29C683.39,237.59,651.14,276,585.92,276,512,276,454.76,225.27,454.76,151Z"/><path class="cls-1" d="M872.15,240.49H779.39L770,271.65H690.63L779.76,30h92l89.13,241.67H881.57Zm-73.91-60.87h55.07L825.77,94.48Z"/><path class="cls-1" d="M973.95,30h183.33V90.85H1047.14v28.26h107.61V180H1047.14v30.8h110.15v60.87H973.95Z"/><path class="cls-1" d="M1189.88,30h129c56.52,0,87,37.68,87,83,0,44.93-30.44,81.16-87,81.16h-55.8v77.54h-73.19Zm119.57,60.87h-46.38v42.39h46.38c12.32,0,22.1-8.33,22.1-21C1331.55,99.19,1321.77,90.85,1309.45,90.85Z"/><path class="cls-1" d="M1559.8,240.49H1467l-9.42,31.16h-79.35L1467.41,30h92l89.13,241.67h-79.35Zm-73.91-60.87H1541l-27.54-85.14Z"/><path class="cls-2" d="M1.68,57.1V33c0-.14,0-.2,0-.21.59-.26,3.85,1.32,7.31,3a190.23,190.23,0,0,0,61.35,18.9c12.83,2.2,25,3.64,36.74,5,45.38,5.37,78.17,9.26,80.67,50.33V214c-2.12.32-4.32.75-6.46,1.17-4.52.89-9.2,1.79-13.15,1.71-12.43-.16-24.5-7.73-34.19-13.8-6.78-4.25-12.64-7.92-16.87-7.92-1.74,0-4.2.76-7.6,1.82-6.54,2-16.43,5.1-29.62,5.12a51.56,51.56,0,0,0-18.44,3.28,20.23,20.23,0,0,1-6.36,1.52,34,34,0,0,1-13.21-2.92c-2.42-.95-4.52-1.77-6.65-1.78a19.11,19.11,0,0,0-5.39,1.1c-4.51,1.33-12,3.54-28.15,3.59V57.1Z"/><path class="cls-2" d="M236.21,72.91c-12.52,6.9-20.25,18-21.42,37.17V213.85c10.6-.23,21.18-7.7,30.53-14.31,7-4.95,13-9.22,17.6-9.23,3,0,5.53,1.51,8.49,3.26,4.62,2.73,10.37,6.12,20.88,6.13h.08c13.11,0,17.44-2,20.31-3.36a9.59,9.59,0,0,1,4.35-1.23c2.07,0,4.1,1.13,6.46,2.43,3.71,2.05,8.32,4.61,15.72,4.61,3.54,0,6.51,1,9.65,2.13a35.07,35.07,0,0,0,12.46,2.56h.07a60.81,60.81,0,0,0,13.1-1.53,33,33,0,0,1,6.62-.92,31.89,31.89,0,0,1,6.58,1,54.34,54.34,0,0,0,12,1.48V33.09a.66.66,0,0,0,0-.28c-.54-.26-3.8,1.33-7.25,3a188.15,188.15,0,0,1-61,18.9c-12.73,2.2-24.8,3.64-36.47,5C270.93,62.61,250.47,65,236.21,72.91Z"/><path class="cls-3" d="M187.74,275.93v-61c-2.05.32-4.18.73-6.26,1.14a69.83,69.83,0,0,1-12.74,1.74h-.63c-12.72-.17-24.93-7.82-34.73-14-6.64-4.16-12.38-7.76-16.31-7.76-1.58,0-4.09.78-7.28,1.77-6.6,2.05-16.58,5.15-29.93,5.17a50.6,50.6,0,0,0-18.09,3.22,20.92,20.92,0,0,1-6.72,1.57,34.92,34.92,0,0,1-13.58-3,18.43,18.43,0,0,0-6.27-1.7h0a18.76,18.76,0,0,0-5.05,1.06c-4.57,1.34-12.19,3.58-28.45,3.63v.36c0,2.26,0,14.48,0,14.48v.14c2.5,41.07,35.29,45,80.67,50.33,11.75,1.39,23.91,2.83,36.74,5A190.22,190.22,0,0,1,180.44,297c3.46,1.67,6.72,3.26,7.31,3,0,0,0-.07,0-.21Z"/><path class="cls-3" d="M188,78.59c-11.46-19.46-40-26.44-73.15-34.52-11.46-2.8-23.31-5.69-35.19-9.29C55.2,28.52,42,20.71,34.08,16c-4.54-2.69-7-4.16-8.87-3.56a3.52,3.52,0,0,0-2,2.38c-1.49,2.93-1.31,6.26.52,9.63,3.14,5.8,14,16.48,51.18,22.77,13.44,2.88,26.7,4.94,39.52,6.93,32.64,5.08,60.83,9.46,72.81,24.92Z"/><path class="cls-3" d="M188,67.26c-8.14-17.2-31-24.91-57.43-33.84-9-3-18.35-6.2-27.81-9.94C82.73,16.56,72.28,9.1,66,4.65c-3.59-2.56-5.58-4-7.15-3.59A3,3,0,0,0,57,2.91a8.44,8.44,0,0,0-.31,8.1c2.18,5.07,10.42,14.75,41.06,22.57,10.92,3.3,21.57,5.89,31.86,8.39,26.18,6.36,48.79,11.85,57.65,25.67Z"/><path class="cls-3" d="M214.79,274.2V214.81c10.93-.23,21.65-7.8,31.13-14.5,6.86-4.85,12.78-9,17-9,2.69,0,5,1.38,8,3.12,4.73,2.79,10.61,6.26,21.41,6.27h.08c13.34,0,17.8-2.08,20.75-3.46a8.66,8.66,0,0,1,3.91-1.13c1.8,0,3.63,1,6,2.3,3.81,2.11,8.56,4.74,16.2,4.74,3.39,0,6.27,1,9.32,2.07a36.43,36.43,0,0,0,12.81,2.62h.07a61.72,61.72,0,0,0,13.31-1.55,32.32,32.32,0,0,1,6.38-.9,31.13,31.13,0,0,1,6.38.94,55.51,55.51,0,0,0,12.18,1.5v15c-2.48,41.07-35.06,45-80.14,50.32-11.68,1.39-23.75,2.83-36.47,5A188.14,188.14,0,0,0,222,297c-3.45,1.68-6.7,3.27-7.25,3a.66.66,0,0,1,0-.28Z"/><path class="cls-3" d="M378.31,14.9a3.56,3.56,0,0,0-2.05-2.43c-1.82-.61-4.31.87-8.82,3.56-7.85,4.67-21,12.49-45.34,18.75-11.78,3.59-23.55,6.48-34.94,9.28-32.88,8.08-61.28,15.07-72.67,34.52l.85.52c11.91-15.46,39.91-19.85,72.33-24.92,12.73-2,25.9-4.05,39.25-6.93,37-6.29,47.72-17,50.85-22.77C379.58,21.12,379.76,17.79,378.31,14.9Z"/><path class="cls-3" d="M344.71,3a3,3,0,0,0-1.9-1.89c-1.56-.38-3.53,1-7.1,3.59-6.21,4.45-16.6,11.91-36.49,18.83-9.38,3.74-18.64,6.89-27.61,9.94-26.28,8.93-49,16.65-57.05,33.84l.75.37c8.8-13.81,31.26-19.31,57.27-25.67,10.22-2.5,20.8-5.09,31.65-8.39C334.65,25.76,342.83,16.08,345,11A8.46,8.46,0,0,0,344.71,3Z"/><path class="cls-4" d="M1.67,351c0-11.92,8.78-20.07,19.77-20.07a17.44,17.44,0,0,1,14.89,7.68l-4.07,2.27a13.17,13.17,0,0,0-10.82-5.64c-8.32,0-14.77,6.51-14.77,15.76s6.46,15.76,14.77,15.76a13,13,0,0,0,10.82-5.64l4.13,2.27a17.64,17.64,0,0,1-14.95,7.68C10.45,371.07,1.67,362.92,1.67,351Z"/><path class="cls-4" d="M60.24,330.93c11.46,0,19.25,8.61,19.25,20.07s-7.79,20.07-19.25,20.07S41,362.46,41,351,48.72,330.93,60.24,330.93Zm0,4.3C51.51,335.24,46,341.93,46,351s5.52,15.76,14.25,15.76S74.48,360,74.48,351,68.9,335.24,60.24,335.24Z"/><path class="cls-4" d="M87,331.57h4.83v34.49h18v4.3H87Z"/><path class="cls-4" d="M132.42,330.93c11.46,0,19.25,8.61,19.25,20.07s-7.79,20.07-19.25,20.07-19.25-8.61-19.25-20.07S120.9,330.93,132.42,330.93Zm0,4.3c-8.72,0-14.25,6.69-14.25,15.76s5.53,15.76,14.25,15.76S146.66,360,146.66,351,141.08,335.24,132.42,335.24Z"/><path class="cls-4" d="M171.79,355h-7.74v15.41h-4.83V331.57h15.59c7.1,0,12.16,4.54,12.16,11.69,0,7-4.77,10.82-10.06,11.28l10.47,15.82h-5.7Zm2.44-19.08H164.06v14.83h10.18c4.6,0,7.74-3.08,7.74-7.44S178.83,335.88,174.23,335.88Z"/><path class="cls-4" d="M219,361.76H199.36l-3.43,8.61h-5.35l15.59-38.79h6l15.65,38.79h-5.35Zm-18.26-4.3h16.81l-8.38-21.58Z"/><path class="cls-4" d="M232.86,331.57h13.26c12,0,19.89,8.43,19.89,19.43s-7.85,19.37-19.89,19.37H232.86Zm13.26,34.49c9.42,0,14.89-6.75,14.89-15.06s-5.29-15.12-14.89-15.12h-8.43v30.19Z"/><path class="cls-4" d="M291.26,330.93c11.46,0,19.25,8.61,19.25,20.07s-7.79,20.07-19.25,20.07S272,362.46,272,351,279.74,330.93,291.26,330.93Zm0,4.3c-8.72,0-14.25,6.69-14.25,15.76s5.52,15.76,14.25,15.76S305.5,360,305.5,351,299.92,335.24,291.26,335.24Z"/><path class="cls-4" d="M357.5,361.76H337.84l-3.43,8.61h-5.35l15.59-38.79h6l15.65,38.79h-5.35Zm-18.26-4.3H356l-8.38-21.58Z"/><path class="cls-4" d="M371.35,331.57h13.26c12,0,19.89,8.43,19.89,19.43s-7.85,19.37-19.89,19.37H371.35Zm13.26,34.49c9.42,0,14.89-6.75,14.89-15.06s-5.29-15.12-14.89-15.12h-8.43v30.19Z"/><path class="cls-4" d="M412.06,331.57h4.83v23.61c0,7.1,3.84,11.57,11,11.57s11-4.48,11-11.57V331.57h4.83v23.67c0,9.65-5.29,15.82-15.82,15.82s-15.82-6.22-15.82-15.76Z"/><path class="cls-4" d="M452.77,331.57h4.83v34.49h18v4.3H452.77Z"/><path class="cls-4" d="M486.22,335.88H473.94v-4.3h29.43v4.3H491v34.49h-4.83Z"/><path class="cls-4" d="M524.78,331.57h25.42v4.3H529.6v12.5h20.18v4.3H529.6v13.38h20.59v4.3H524.78Z"/><path class="cls-4" d="M557.87,331.57h13.26c12,0,19.89,8.43,19.89,19.43s-7.85,19.37-19.89,19.37H557.87Zm13.26,34.49c9.42,0,14.89-6.75,14.89-15.06s-5.29-15.12-14.89-15.12H562.7v30.19Z"/><path class="cls-4" d="M598.58,331.57h4.83v23.61c0,7.1,3.84,11.57,11,11.57s11-4.48,11-11.57V331.57h4.83v23.67c0,9.65-5.29,15.82-15.82,15.82s-15.82-6.22-15.82-15.76Z"/><path class="cls-4" d="M637.73,351c0-11.92,8.78-20.07,19.77-20.07a17.44,17.44,0,0,1,14.89,7.68l-4.07,2.27a13.17,13.17,0,0,0-10.82-5.64c-8.32,0-14.77,6.51-14.77,15.76s6.46,15.76,14.77,15.76a13,13,0,0,0,10.82-5.64l4.13,2.27a17.64,17.64,0,0,1-14.95,7.68C646.51,371.07,637.73,362.92,637.73,351Z"/><path class="cls-4" d="M702.87,361.76H683.21l-3.43,8.61h-5.35L690,331.57h6l15.65,38.79H706.3Zm-18.26-4.3h16.81L693,335.88Z"/><path class="cls-4" d="M722.41,335.88H710.14v-4.3h29.43v4.3H727.24v34.49h-4.83Z"/><path class="cls-4" d="M746,331.57h4.83v38.79H746Z"/><path class="cls-4" d="M777.55,330.93c11.46,0,19.25,8.61,19.25,20.07s-7.79,20.07-19.25,20.07S758.3,362.46,758.3,351,766,330.93,777.55,330.93Zm0,4.3c-8.72,0-14.25,6.69-14.25,15.76s5.53,15.76,14.25,15.76S791.8,360,791.8,351,786.22,335.24,777.55,335.24Z"/><path class="cls-4" d="M809.19,339.08v31.29h-4.83V331.57h4.94l22.33,30.65V331.57h4.83v38.79h-4.65Z"/><path class="cls-4" d="M860.55,331.57h15.59c7.79,0,12.16,5.35,12.16,11.69S883.81,355,876.13,355H865.37v15.41h-4.83Zm15,4.3H865.37v14.77h10.18c4.6,0,7.74-3,7.74-7.39S880.15,335.88,875.55,335.88Z"/><path class="cls-4" d="M907.25,355h-7.74v15.41h-4.83V331.57h15.59c7.1,0,12.16,4.54,12.16,11.69,0,7-4.77,10.82-10.06,11.28l10.47,15.82h-5.7Zm2.44-19.08H899.51v14.83h10.18c4.6,0,7.74-3.08,7.74-7.44S914.29,335.88,909.69,335.88Z"/><path class="cls-4" d="M947.73,330.93c11.46,0,19.25,8.61,19.25,20.07s-7.79,20.07-19.25,20.07-19.25-8.61-19.25-20.07S936.22,330.93,947.73,330.93Zm0,4.3c-8.72,0-14.25,6.69-14.25,15.76s5.52,15.76,14.25,15.76S962,360,962,351,956.4,335.24,947.73,335.24Z"/><path class="cls-4" d="M974.54,331.57H1000v4.3H979.37v12.5h20.18v4.3H979.37v17.68h-4.83Z"/><path class="cls-4" d="M1006.53,331.57h25.42v4.3h-20.59v12.5h20.18v4.3h-20.18v13.38h20.59v4.3h-25.42Z"/><path class="cls-4" d="M1040.15,361.24a16.4,16.4,0,0,0,12.21,5.53c6.92,0,9.13-3.72,9.13-6.69,0-4.65-4.71-5.93-9.83-7.33-6.22-1.63-13.14-3.37-13.14-11,0-6.4,5.7-10.76,13.32-10.76,5.93,0,10.53,2,13.78,5.41l-2.91,3.55a14.85,14.85,0,0,0-11.23-4.65c-4.65,0-8,2.5-8,6.17,0,3.9,4.48,5.06,9.42,6.4,6.34,1.69,13.55,3.66,13.55,11.81,0,5.64-3.84,11.4-14.31,11.4-6.75,0-11.69-2.56-14.89-6.16Z"/><path class="cls-4" d="M1074.23,361.24a16.4,16.4,0,0,0,12.21,5.53c6.92,0,9.13-3.72,9.13-6.69,0-4.65-4.71-5.93-9.83-7.33-6.22-1.63-13.14-3.37-13.14-11,0-6.4,5.7-10.76,13.32-10.76,5.93,0,10.53,2,13.78,5.41l-2.91,3.55a14.85,14.85,0,0,0-11.23-4.65c-4.65,0-8,2.5-8,6.17,0,3.9,4.48,5.06,9.42,6.4,6.34,1.69,13.55,3.66,13.55,11.81,0,5.64-3.84,11.4-14.31,11.4-6.75,0-11.69-2.56-14.89-6.16Z"/><path class="cls-4" d="M1107.79,331.57h4.83v38.79h-4.83Z"/><path class="cls-4" d="M1139.37,330.93c11.46,0,19.25,8.61,19.25,20.07s-7.79,20.07-19.25,20.07-19.25-8.61-19.25-20.07S1127.86,330.93,1139.37,330.93Zm0,4.3c-8.72,0-14.25,6.69-14.25,15.76s5.53,15.76,14.25,15.76,14.25-6.75,14.25-15.76S1148,335.24,1139.37,335.24Z"/><path class="cls-4" d="M1171,339.08v31.29h-4.83V331.57h4.94l22.33,30.65V331.57h4.83v38.79h-4.65Z"/><path class="cls-4" d="M1231.79,361.76h-19.66l-3.43,8.61h-5.35l15.59-38.79h6l15.65,38.79h-5.35Zm-18.26-4.3h16.81L1222,335.88Z"/><path class="cls-4" d="M1245.64,331.57h4.83v34.49h18v4.3h-22.86Z"/><path class="cls-4" d="M1314.73,361.76h-19.66l-3.43,8.61h-5.35l15.59-38.79h6l15.65,38.79h-5.35Zm-18.26-4.3h16.81l-8.38-21.58Z"/><path class="cls-4" d="M1328.28,361.24a16.4,16.4,0,0,0,12.21,5.53c6.92,0,9.13-3.72,9.13-6.69,0-4.65-4.71-5.93-9.83-7.33-6.22-1.63-13.14-3.37-13.14-11,0-6.4,5.7-10.76,13.32-10.76,5.93,0,10.53,2,13.78,5.41l-2.91,3.55a14.85,14.85,0,0,0-11.23-4.65c-4.65,0-8,2.5-8,6.17,0,3.9,4.48,5.06,9.42,6.4,6.34,1.69,13.55,3.66,13.55,11.81,0,5.64-3.84,11.4-14.31,11.4-6.75,0-11.69-2.56-14.89-6.16Z"/><path class="cls-4" d="M1362.37,361.24a16.4,16.4,0,0,0,12.21,5.53c6.92,0,9.13-3.72,9.13-6.69,0-4.65-4.71-5.93-9.83-7.33-6.22-1.63-13.14-3.37-13.14-11,0-6.4,5.7-10.76,13.32-10.76,5.93,0,10.53,2,13.78,5.41l-2.91,3.55a14.85,14.85,0,0,0-11.23-4.65c-4.65,0-8,2.5-8,6.17,0,3.9,4.48,5.06,9.42,6.4,6.34,1.69,13.55,3.66,13.55,11.81,0,5.64-3.84,11.4-14.31,11.4-6.75,0-11.69-2.56-14.89-6.16Z"/><path class="cls-4" d="M1413.61,330.93c11.46,0,19.25,8.61,19.25,20.07s-7.79,20.07-19.25,20.07-19.25-8.61-19.25-20.07S1402.09,330.93,1413.61,330.93Zm0,4.3c-8.72,0-14.25,6.69-14.25,15.76s5.52,15.76,14.25,15.76,14.25-6.75,14.25-15.76S1422.27,335.24,1413.61,335.24Z"/><path class="cls-4" d="M1438.85,351c0-11.92,8.78-20.07,19.77-20.07a17.44,17.44,0,0,1,14.89,7.68l-4.07,2.27a13.17,13.17,0,0,0-10.82-5.64c-8.32,0-14.77,6.51-14.77,15.76s6.46,15.76,14.77,15.76a13,13,0,0,0,10.82-5.64l4.13,2.27a17.64,17.64,0,0,1-14.95,7.68C1447.63,371.07,1438.85,362.92,1438.85,351Z"/><path class="cls-4" d="M1479.74,331.57h4.83v38.79h-4.83Z"/><path class="cls-4" d="M1518.07,361.76h-19.66l-3.43,8.61h-5.35l15.59-38.79h6l15.65,38.79h-5.35Zm-18.26-4.3h16.81l-8.38-21.58Z"/><path class="cls-4" d="M1537.61,335.88h-12.27v-4.3h29.43v4.3h-12.33v34.49h-4.83Z"/><path class="cls-4" d="M1561.17,331.57H1566v38.79h-4.83Z"/><path class="cls-4" d="M1592.75,330.93c11.46,0,19.25,8.61,19.25,20.07s-7.79,20.07-19.25,20.07-19.25-8.61-19.25-20.07S1581.23,330.93,1592.75,330.93Zm0,4.3c-8.72,0-14.25,6.69-14.25,15.76s5.52,15.76,14.25,15.76S1607,360,1607,351,1601.41,335.24,1592.75,335.24Z"/><path class="cls-4" d="M1624.39,339.08v31.29h-4.83V331.57h4.94l22.33,30.65V331.57h4.83v38.79H1647Z"/></g></svg>