<svg xmlns="http://www.w3.org/2000/svg" xmlns:xlink="http://www.w3.org/1999/xlink" viewBox="0 0 100 100"><defs><style>.cls-1,.cls-2,.cls-3{stroke:#212121;stroke-miterlimit:10;stroke-width:0.5px;}.cls-1{fill:url(#radial-gradient);}.cls-2{fill:#6c2d2d;}.cls-3{fill:#7a7a7a;}.cls-4{font-size:3.51px;font-family:ProximaNova-Regular, Proxima Nova;}.cls-5{letter-spacing:-0.03em;}.cls-6{letter-spacing:-0.1em;}.cls-7{letter-spacing:0em;}.cls-8{letter-spacing:-0.07em;}.cls-9{letter-spacing:0em;}.cls-10{letter-spacing:-0.01em;}.cls-11{letter-spacing:0em;}.cls-12{letter-spacing:-0.07em;}</style><radialGradient id="radial-gradient" cx="49.88" cy="82.94" r="69" gradientUnits="userSpaceOnUse"><stop offset="0.2" stop-color="#7472b9"/><stop offset="0.23" stop-color="#587778"/><stop offset="0.25" stop-color="#4a7956"/><stop offset="0.3" stop-color="#b9a73a"/><stop offset="0.31" stop-color="#b9a03a"/><stop offset="0.4" stop-color="#b9773a"/><stop offset="0.47" stop-color="#b95b3a"/><stop offset="0.55" stop-color="#b9433a"/><stop offset="0.6" stop-color="#b93a3a"/><stop offset="1" stop-color="#6c2d2d"/></radialGradient></defs><title>Logo-CAEPA</title><g id="web-2" data-name="web"><path class="cls-1" d="M.21,22.41v-6s0,0,0-.05A6.65,6.65,0,0,1,2,17.08a47.68,47.68,0,0,0,15.38,4.74c3.22.55,6.26.91,9.21,1.26C38,24.42,46.22,25.4,46.85,35.69v26c-.53.08-1.08.19-1.62.29a16.44,16.44,0,0,1-3.3.43c-3.12,0-6.14-1.94-8.57-3.46-1.7-1.07-3.17-2-4.23-2a7.74,7.74,0,0,0-1.9.46,23.8,23.8,0,0,1-7.42,1.28,12.92,12.92,0,0,0-4.62.82,5.07,5.07,0,0,1-1.59.38,8.53,8.53,0,0,1-3.31-.73,4.79,4.79,0,0,0-1.67-.45A4.79,4.79,0,0,0,7.27,59a22.58,22.58,0,0,1-7.06.9V22.41Z"/><path class="cls-1" d="M59,26.37c-3.14,1.73-5.08,4.5-5.37,9.32v26c2.66-.06,5.31-1.93,7.65-3.59,1.75-1.24,3.27-2.31,4.41-2.31a4.3,4.3,0,0,1,2.13.82,9.22,9.22,0,0,0,5.23,1.54h0c3.28,0,4.37-.51,5.09-.84A2.4,2.4,0,0,1,79.25,57a3.58,3.58,0,0,1,1.62.61,7.46,7.46,0,0,0,3.94,1.16,7.09,7.09,0,0,1,2.42.53,8.79,8.79,0,0,0,3.12.64h0a15.24,15.24,0,0,0,3.28-.38,8.27,8.27,0,0,1,1.66-.23,8,8,0,0,1,1.65.24,13.62,13.62,0,0,0,3,.37V16.39a.16.16,0,0,0,0-.07,6.87,6.87,0,0,0-1.82.75,47.16,47.16,0,0,1-15.28,4.74c-3.19.55-6.22.91-9.14,1.26C67.7,23.79,62.57,24.4,59,26.37Z"/><path class="cls-2" d="M46.92,27.8c-2.87-4.88-10-6.63-18.33-8.65-2.87-.7-5.84-1.43-8.82-2.33a39.76,39.76,0,0,1-11.43-4.7c-1.14-.67-1.77-1-2.22-.89a.88.88,0,0,0-.51.6,2.52,2.52,0,0,0,.13,2.41c.79,1.45,3.5,4.13,12.83,5.71,3.37.72,6.69,1.24,9.9,1.74C36.64,23,43.7,24.05,46.71,27.93Z"/><path class="cls-2" d="M46.91,25c-2-4.31-7.77-6.24-14.39-8.48-2.26-.76-4.6-1.55-7-2.49a33,33,0,0,1-9.2-4.72c-.9-.64-1.4-1-1.79-.9a.75.75,0,0,0-.48.46,2.11,2.11,0,0,0-.08,2c.55,1.27,2.61,3.7,10.29,5.66,2.74.83,5.41,1.48,8,2.1,6.56,1.59,12.23,3,14.45,6.43Z"/><path class="cls-2" d="M94.61,11.84a.89.89,0,0,0-.51-.61c-.46-.15-1.08.22-2.21.89a39.37,39.37,0,0,1-11.36,4.7c-3,.9-5.9,1.62-8.76,2.33-8.24,2-15.36,3.78-18.21,8.65l.21.13c3-3.88,10-5,18.13-6.25,3.19-.5,6.49-1,9.84-1.74,9.26-1.58,12-4.25,12.74-5.71A2.52,2.52,0,0,0,94.61,11.84Z"/><path class="cls-2" d="M86.19,8.84a.76.76,0,0,0-.48-.47c-.39-.1-.89.26-1.78.9A32.71,32.71,0,0,1,74.79,14c-2.35.94-4.67,1.73-6.92,2.49-6.59,2.24-12.27,4.17-14.3,8.48l.19.09c2.21-3.46,7.84-4.84,14.35-6.43,2.56-.63,5.21-1.27,7.93-2.1,7.63-2,9.68-4.39,10.22-5.66A2.12,2.12,0,0,0,86.19,8.84Z"/><path class="cls-3" d="M.25,75.19C.25,69,5,64.77,11.18,64.77c5.44,0,8.09,3.08,9.3,5.86l-5.25,2.45a4.31,4.31,0,0,0-4-2.93,5.05,5.05,0,0,0,0,10.09,4.31,4.31,0,0,0,4-2.93l5.25,2.42a9.58,9.58,0,0,1-9.3,5.89C5,85.61.25,81.38.25,75.19Z"/><path class="cls-3" d="M35,82.65H27.31l-.79,2.6H19.91L27.34,65.1H35l7.43,20.14H35.82Zm-6.16-5.07h4.59l-2.3-7.1Z"/><path class="cls-3" d="M43.52,65.1H58.8v5.07H49.62v2.36h9v5.07h-9v2.57H58.8v5.07H43.52Z"/><path class="cls-3" d="M61.52,65.1H72.27c4.71,0,7.25,3.14,7.25,6.92S77,78.78,72.27,78.78H67.62v6.46h-6.1Zm10,5.07H67.62v3.53h3.87a1.77,1.77,0,1,0,0-3.53Z"/><path class="cls-3" d="M92.35,82.65H84.62l-.79,2.6H77.22L84.65,65.1h7.67l7.43,20.14H93.14Zm-6.16-5.07h4.59l-2.3-7.1Z"/><text class="cls-4" transform="translate(0 90.51)">CO<tspan class="cls-5" x="5.06" y="0">L</tspan><tspan x="6.73" y="0">ORADO ADU</tspan><tspan class="cls-6" x="27.12" y="0">L</tspan><tspan x="28.56" y="0">T EDU</tspan><tspan class="cls-7" x="38.37" y="0">C</tspan><tspan class="cls-8" x="40.74" y="0">A</tspan><tspan class="cls-9" x="42.81" y="0">TION PROFESSIONAL </tspan><tspan class="cls-10" x="77.65" y="0">A</tspan><tspan class="cls-11" x="79.91" y="0">SSOCI</tspan><tspan class="cls-12" x="89.92" y="0">A</tspan><tspan x="91.99" y="0">TION</tspan></text></g></svg>