<svg xmlns="http://www.w3.org/2000/svg" xmlns:xlink="http://www.w3.org/1999/xlink" viewBox="0 0 400.64 400.64"><defs><style>.cls-1,.cls-2,.cls-3{stroke:#212121;stroke-miterlimit:10;stroke-width:2px;}.cls-1{fill:url(#radial-gradient);}.cls-2{fill:#6c2d2d;}.cls-3{fill:#7a7a7a;}.cls-4{font-size:14px;font-family:ProximaNova-Regular, Proxima Nova;}.cls-5{letter-spacing:-0.03em;}.cls-6{letter-spacing:-0.1em;}.cls-7{letter-spacing:0em;}.cls-8{letter-spacing:-0.07em;}.cls-9{letter-spacing:-0.01em;}</style><radialGradient id="radial-gradient" cx="199.84" cy="332.24" r="275.28" gradientUnits="userSpaceOnUse"><stop offset="0.2" stop-color="#7472b9"/><stop offset="0.23" stop-color="#587778"/><stop offset="0.25" stop-color="#4a7956"/><stop offset="0.3" stop-color="#b9a73a"/><stop offset="0.31" stop-color="#b9a03a"/><stop offset="0.4" stop-color="#b9773a"/><stop offset="0.47" stop-color="#b95b3a"/><stop offset="0.55" stop-color="#b9433a"/><stop offset="0.6" stop-color="#b93a3a"/><stop offset="1" stop-color="#6c2d2d"/></radialGradient></defs><title>vertical</title><g id="recolor-3" data-name="recolor"><path class="cls-1" d="M1.68,90.75V66.68c0-.14,0-.2,0-.21.59-.26,3.85,1.32,7.31,3a190.23,190.23,0,0,0,61.35,18.9c12.83,2.2,25,3.64,36.74,5,45.38,5.37,78.17,9.26,80.67,50.33V247.6c-2.12.32-4.32.75-6.46,1.17-4.52.89-9.2,1.79-13.15,1.71-12.43-.16-24.5-7.73-34.19-13.8-6.78-4.25-12.64-7.92-16.87-7.92-1.74,0-4.2.76-7.6,1.82-6.54,2-16.43,5.1-29.62,5.12A51.56,51.56,0,0,0,61.43,239a20.23,20.23,0,0,1-6.36,1.52,34,34,0,0,1-13.21-2.92c-2.42-.95-4.52-1.77-6.65-1.78a19.11,19.11,0,0,0-5.39,1.1c-4.51,1.33-12,3.54-28.15,3.59V90.75Z"/><path class="cls-1" d="M236.21,106.56c-12.52,6.9-20.25,18-21.42,37.17V247.5c10.6-.23,21.18-7.7,30.53-14.31,7-4.95,13-9.22,17.6-9.23,3,0,5.53,1.51,8.49,3.26,4.62,2.73,10.37,6.12,20.88,6.13h.08c13.11,0,17.44-2,20.31-3.36a9.59,9.59,0,0,1,4.35-1.23c2.07,0,4.1,1.13,6.46,2.43,3.71,2.05,8.32,4.61,15.72,4.61,3.54,0,6.51,1,9.65,2.13a35.07,35.07,0,0,0,12.46,2.56h.07a60.81,60.81,0,0,0,13.1-1.53,33,33,0,0,1,6.62-.92,31.89,31.89,0,0,1,6.58,1,54.34,54.34,0,0,0,12,1.48V66.74a.66.66,0,0,0,0-.28c-.54-.26-3.8,1.33-7.25,3a188.15,188.15,0,0,1-61,18.9c-12.73,2.2-24.8,3.64-36.47,5C270.93,96.26,250.47,98.7,236.21,106.56Z"/><path class="cls-2" d="M188,112.24c-11.46-19.46-40-26.44-73.15-34.52C103.43,74.92,91.58,72,79.7,68.43,55.21,62.17,42,54.36,34.08,49.69c-4.54-2.69-7-4.16-8.87-3.56a3.52,3.52,0,0,0-2,2.38c-1.49,2.93-1.31,6.26.52,9.63,3.14,5.8,14,16.48,51.18,22.77,13.44,2.88,26.7,4.94,39.52,6.93,32.64,5.08,60.83,9.46,72.81,24.92Z"/><path class="cls-2" d="M188,100.91c-8.14-17.2-31-24.91-57.43-33.84-9-3-18.35-6.2-27.81-9.94C82.73,50.21,72.28,42.75,66,38.3c-3.59-2.56-5.58-4-7.15-3.59A3,3,0,0,0,57,36.56a8.44,8.44,0,0,0-.31,8.1c2.18,5.07,10.42,14.75,41.06,22.57,10.92,3.3,21.57,5.89,31.86,8.39,26.18,6.36,48.79,11.85,57.65,25.67Z"/><path class="cls-2" d="M378.31,48.56a3.56,3.56,0,0,0-2.05-2.43c-1.82-.61-4.31.87-8.82,3.56-7.85,4.67-21,12.49-45.34,18.75-11.78,3.59-23.55,6.48-34.94,9.28-32.88,8.08-61.28,15.07-72.67,34.52l.85.52c11.91-15.46,39.91-19.85,72.33-24.92,12.73-2,25.9-4.05,39.25-6.93,37-6.29,47.72-17,50.85-22.77C379.59,54.77,379.76,51.44,378.31,48.56Z"/><path class="cls-2" d="M344.71,36.6a3,3,0,0,0-1.9-1.89c-1.56-.38-3.53,1-7.1,3.59-6.21,4.45-16.6,11.91-36.49,18.83-9.38,3.74-18.64,6.89-27.61,9.94-26.28,8.93-49,16.65-57.05,33.84l.75.37c8.8-13.81,31.26-19.31,57.27-25.67,10.22-2.5,20.8-5.09,31.65-8.39,30.44-7.82,38.62-17.5,40.79-22.57A8.46,8.46,0,0,0,344.71,36.6Z"/><path class="cls-3" d="M1.82,301.32c0-24.82,19-41.57,43.62-41.57,21.69,0,32.29,12.29,37.11,23.37l-21,9.76A17.21,17.21,0,0,0,45.44,281.2c-11.09,0-18.92,8.92-18.92,20.12s7.83,20.12,18.92,20.12a17.21,17.21,0,0,0,16.15-11.69l21,9.64c-4.7,10.72-15.42,23.5-37.11,23.5C20.86,342.89,1.82,326,1.82,301.32Z"/><path class="cls-3" d="M140.62,331.08H109.78l-3.13,10.36H80.26l29.64-80.37h30.6l29.64,80.37H143.75ZM116,310.84h18.31l-9.16-28.31Z"/><path class="cls-3" d="M174.48,261.08h61v20.24H198.81v9.4H234.6V311H198.81V321.2h36.63v20.24h-61Z"/><path class="cls-3" d="M246.28,261.08h42.89c18.8,0,28.92,12.53,28.92,27.59s-10.12,27-28.92,27H270.62v25.78H246.28ZM286,281.32H270.62v14.1H286c4.1,0,7.35-2.77,7.35-7S290.14,281.32,286,281.32Z"/><path class="cls-3" d="M369.3,331.08H338.46l-3.13,10.36H308.94l29.64-80.37h30.6l29.64,80.37H372.43Zm-24.58-20.24H363l-9.16-28.31Z"/><text class="cls-4" transform="translate(0.84 362.44)">CO<tspan class="cls-5" x="20.17" y="0">L</tspan><tspan x="26.84" y="0">ORADO ADU</tspan><tspan class="cls-6" x="108.21" y="0">L</tspan><tspan x="113.95" y="0">T EDU</tspan><tspan class="cls-7" x="153.1" y="0">C</tspan><tspan class="cls-8" x="162.52" y="0">A</tspan><tspan x="170.8" y="0">TION PROFESSIONAL </tspan><tspan class="cls-9" x="309.8" y="0">A</tspan><tspan x="318.82" y="0">SSOCI</tspan><tspan class="cls-8" x="358.75" y="0">A</tspan><tspan x="367.02" y="0">TION</tspan></text></g></svg>